<?xml version="1.0" encoding="utf-8"?>
<!-- Generator: Adobe Illustrator 22.1.0, SVG Export Plug-In . SVG Version: 6.00 Build 0)  -->
<svg version="1.1" xmlns="http://www.w3.org/2000/svg" xmlns:xlink="http://www.w3.org/1999/xlink" x="0px" y="0px"
	 viewBox="0 0 500 500" style="enable-background:new 0 0 500 500;" xml:space="preserve">
<style type="text/css">
	.st0{fill:#ECC25D;}
	.st1{fill:#EBAE44;}
	.st2{display:none;fill:#EFEFEF;}
	.st3{display:none;fill:#E2E2E2;}
	.st4{fill:#EEC746;}
	.st5{fill:#FBDB4A;}
	.st6{fill:#EFEEEF;}
	.st7{fill:#E49DAB;}
	.st8{fill:#C9C8C8;}
	.st9{fill:#FFFFFF;}
	.st10{fill:#6558A0;}
	.st11{fill:#81589F;}
	.st12{display:none;}
	.st13{display:inline;}
</style>
<g id="Layer_5">
</g>
<g id="Layer_1">
	<g>
		<path class="st0" d="M399,101c-19.3-19.3-41.9-34.5-67-45.1c-26-11-53.6-16.6-82-16.6c-28.4,0-56,5.6-82,16.6
			c-25.1,10.6-47.6,25.8-67,45.1c-19.3,19.3-34.5,41.9-45.1,67c-11,26-16.6,53.6-16.6,82c0,28.4,5.6,56,16.6,82
			c10.6,25.1,25.8,47.6,45.1,67c19.3,19.3,41.9,34.5,67,45.1c26,11,53.6,16.6,82,16.6c28.4,0,56-5.6,82-16.6
			c25.1-10.6,47.6-25.8,67-45.1c19.3-19.3,34.5-41.9,45.1-67c11-26,16.6-53.6,16.6-82c0-28.4-5.6-56-16.6-82
			C433.5,142.9,418.3,120.4,399,101z"/>
		<path class="st1" d="M424.2,75.8c-22.6-22.6-49-40.4-78.3-52.8C315.5,10.2,283.2,3.7,250,3.7s-65.5,6.5-95.9,19.4
			c-29.3,12.4-55.7,30.2-78.3,52.8s-40.4,49-52.8,78.3C10.2,184.5,3.7,216.8,3.7,250s6.5,65.5,19.4,95.9
			c12.4,29.3,30.2,55.7,52.8,78.3c22.6,22.6,49,40.4,78.3,52.8c30.4,12.8,62.6,19.4,95.9,19.4s65.5-6.5,95.9-19.4
			c29.3-12.4,55.7-30.2,78.3-52.8c22.6-22.6,40.4-49,52.8-78.3c12.8-30.4,19.4-62.6,19.4-95.9s-6.5-65.5-19.4-95.9
			C464.5,124.8,446.8,98.5,424.2,75.8z M447.5,333.4c-10.8,25.5-26.3,48.5-45.9,68.1c-19.7,19.7-42.6,35.1-68.1,45.9
			c-26.4,11.2-54.5,16.8-83.4,16.8c-28.9,0-57-5.7-83.4-16.8c-25.5-10.8-48.5-26.3-68.1-45.9c-19.7-19.7-35.1-42.6-45.9-68.1
			C41.3,307,35.6,278.9,35.6,250c0-28.9,5.7-57,16.8-83.4c10.8-25.5,26.3-48.5,45.9-68.1s42.6-35.1,68.1-45.9
			C193,41.3,221.1,35.6,250,35.6c28.9,0,57,5.7,83.4,16.8c25.5,10.8,48.5,26.3,68.1,45.9c19.7,19.7,35.1,42.6,45.9,68.1
			c11.2,26.4,16.8,54.5,16.8,83.4C464.4,278.9,458.7,307,447.5,333.4z"/>
		<path class="st2" d="M399,101c-19.3-19.3-41.9-34.5-67-45.1c-26-11-53.6-16.6-82-16.6c-28.4,0-56,5.6-82,16.6
			c-25.1,10.6-47.6,25.8-67,45.1c-19.3,19.3-34.5,41.9-45.1,67c-11,26-16.6,53.6-16.6,82c0,28.4,5.6,56,16.6,82
			c10.6,25.1,25.8,47.6,45.1,67c19.3,19.3,41.9,34.5,67,45.1c26,11,53.6,16.6,82,16.6c28.4,0,56-5.6,82-16.6
			c25.1-10.6,47.6-25.8,67-45.1c19.3-19.3,34.5-41.9,45.1-67c11-26,16.6-53.6,16.6-82c0-28.4-5.6-56-16.6-82
			C433.5,142.9,418.3,120.4,399,101z"/>
		<path class="st3" d="M424.2,75.8c-22.6-22.6-49-40.4-78.3-52.8C315.5,10.2,283.2,3.7,250,3.7s-65.5,6.5-95.9,19.4
			c-29.3,12.4-55.7,30.2-78.3,52.8s-40.4,49-52.8,78.3C10.2,184.5,3.7,216.8,3.7,250s6.5,65.5,19.4,95.9
			c12.4,29.3,30.2,55.7,52.8,78.3c22.6,22.6,49,40.4,78.3,52.8c30.4,12.8,62.6,19.4,95.9,19.4s65.5-6.5,95.9-19.4
			c29.3-12.4,55.7-30.2,78.3-52.8c22.6-22.6,40.4-49,52.8-78.3c12.8-30.4,19.4-62.6,19.4-95.9s-6.5-65.5-19.4-95.9
			C464.5,124.8,446.8,98.5,424.2,75.8z M447.5,333.4c-10.8,25.5-26.3,48.5-45.9,68.1c-19.7,19.7-42.6,35.1-68.1,45.9
			c-26.4,11.2-54.5,16.8-83.4,16.8c-28.9,0-57-5.7-83.4-16.8c-25.5-10.8-48.5-26.3-68.1-45.9c-19.7-19.7-35.1-42.6-45.9-68.1
			C41.3,307,35.6,278.9,35.6,250c0-28.9,5.7-57,16.8-83.4c10.8-25.5,26.3-48.5,45.9-68.1s42.6-35.1,68.1-45.9
			C193,41.3,221.1,35.6,250,35.6c28.9,0,57,5.7,83.4,16.8c25.5,10.8,48.5,26.3,68.1,45.9c19.7,19.7,35.1,42.6,45.9,68.1
			c11.2,26.4,16.8,54.5,16.8,83.4C464.4,278.9,458.7,307,447.5,333.4z"/>
		<path d="M426.8,73.2c-23-23-49.7-41-79.5-53.6C316.5,6.6,283.7,0,250,0c-33.7,0-66.5,6.6-97.3,19.6
			c-29.8,12.6-56.5,30.6-79.5,53.6c-23,23-41,49.7-53.6,79.5C6.6,183.5,0,216.3,0,250c0,33.7,6.6,66.5,19.6,97.3
			c12.6,29.8,30.6,56.5,53.6,79.5c23,23,49.7,41,79.5,53.6c30.8,13,63.6,19.6,97.3,19.6c33.7,0,66.5-6.6,97.3-19.6
			c29.8-12.6,56.5-30.6,79.5-53.6c23-23,41-49.7,53.6-79.5c13-30.8,19.6-63.6,19.6-97.3c0-33.7-6.6-66.5-19.6-97.3
			C467.8,122.9,449.7,96.2,426.8,73.2z M476.9,345.9c-12.4,29.3-30.2,55.7-52.8,78.3c-22.6,22.6-49,40.4-78.3,52.8
			c-30.4,12.8-62.6,19.4-95.9,19.4s-65.5-6.5-95.9-19.4c-29.3-12.4-55.7-30.2-78.3-52.8c-22.6-22.6-40.4-49-52.8-78.3
			C10.2,315.5,3.7,283.2,3.7,250s6.5-65.5,19.4-95.9c12.4-29.3,30.2-55.7,52.8-78.3s49-40.4,78.3-52.8C184.5,10.2,216.8,3.7,250,3.7
			s65.5,6.5,95.9,19.4c29.3,12.4,55.7,30.2,78.3,52.8c22.6,22.6,40.4,49,52.8,78.3c12.8,30.4,19.4,62.6,19.4,95.9
			S489.8,315.5,476.9,345.9z"/>
		<path d="M401.6,98.4c-19.7-19.7-42.6-35.1-68.1-45.9C307,41.3,278.9,35.6,250,35.6c-28.9,0-57,5.7-83.4,16.8
			C141,63.3,118.1,78.7,98.4,98.4S63.3,141,52.5,166.6C41.3,193,35.6,221.1,35.6,250c0,28.9,5.7,57,16.8,83.4
			c10.8,25.5,26.3,48.5,45.9,68.1c19.7,19.7,42.6,35.1,68.1,45.9c26.4,11.2,54.5,16.8,83.4,16.8c28.9,0,57-5.7,83.4-16.8
			c25.5-10.8,48.5-26.3,68.1-45.9c19.7-19.7,35.1-42.6,45.9-68.1c11.2-26.4,16.8-54.5,16.8-83.4c0-28.9-5.7-57-16.8-83.4
			C436.7,141,421.3,118.1,401.6,98.4z M444.1,332c-10.6,25.1-25.8,47.6-45.1,67c-19.3,19.3-41.9,34.5-67,45.1
			c-26,11-53.6,16.6-82,16.6c-28.4,0-56-5.6-82-16.6c-25.1-10.6-47.6-25.8-67-45.1c-19.3-19.3-34.5-41.9-45.1-67
			c-11-26-16.6-53.6-16.6-82c0-28.4,5.6-56,16.6-82c10.6-25.1,25.8-47.6,45.1-67c19.3-19.3,41.9-34.5,67-45.1
			c26-11,53.6-16.6,82-16.6c28.4,0,56,5.6,82,16.6c25.1,10.6,47.6,25.8,67,45.1s34.5,41.9,45.1,67c11,26,16.6,53.6,16.6,82
			C460.6,278.4,455.1,306,444.1,332z"/>
	</g>
	<g>
		<path class="st4" d="M198.9,354.1c5.6,13.9,5.8,29.6,0.4,44.3h0c-5.4,14.7-15.6,26.6-28.9,33.5c-5.6,2.9-11.5,4.8-17.5,5.7
			c8.8,0.6,17.8-1.2,26.1-5.6c12.4-6.5,22.1-17.7,27.1-31.5c5.1-13.8,4.9-28.6-0.3-41.6c-4.1-10-10.8-18-19.4-23.2
			C191.8,340.6,196,346.9,198.9,354.1z"/>
		<path class="st5" d="M168.7,428.6c12.4-6.5,22.1-17.7,27.1-31.5c5.1-13.8,4.9-28.6-0.3-41.6c-4.8-11.7-13.3-20.8-24.1-25.8
			c-1.1-0.5-2.2-1-3.4-1.4c-4-1.5-8.2-2.3-12.3-2.6c-1.1-0.1-2.2-0.1-3.4-0.1c-21.1,0-41.6,14.5-50,37.2
			c-5.1,13.8-4.9,28.6,0.3,41.6c4.1,10,10.8,18,19.4,23.2c2.5,1.5,5.2,2.9,8.1,3.9c2.3,0.8,4.7,1.5,7,2
			C147.7,435.5,158.6,433.9,168.7,428.6z"/>
		<path d="M179.7,328.2c-2.4-0.9-4.8-1.5-7.2-2c5.2,2.3,9.9,5.5,14,9.4c8.6,5.2,15.3,13.3,19.4,23.2c5.3,13,5.4,27.8,0.3,41.6
			c-5.1,13.8-14.7,25-27.1,31.5c-8.4,4.4-17.4,6.3-26.1,5.6c-2.3,0.3-4.7,0.5-7,0.5c-3.3,0-6.6-0.3-9.8-1c1,0.5,2.1,0.9,3.2,1.3
			c5.5,2,11.2,3,17,3c8.3,0,16.6-2.1,24.5-6.2c13.3-6.9,23.5-18.8,28.9-33.5h0c5.4-14.7,5.2-30.4-0.4-44.3
			C203.7,343.5,193.2,333.1,179.7,328.2z"/>
		<path d="M153,437.6c5.9-0.8,11.8-2.7,17.5-5.7c13.3-6.9,23.5-18.8,28.9-33.5h0c5.4-14.7,5.2-30.4-0.4-44.3
			c-2.9-7.2-7.2-13.5-12.4-18.5c-4.1-3.9-8.8-7.1-14-9.4c-1.1-0.5-2.1-0.9-3.2-1.3c-27.7-10.2-59.3,6.3-70.4,36.7
			c-5.4,14.7-5.2,30.4,0.4,44.3c5.7,13.9,16.2,24.3,29.6,29.2c2.4,0.9,4.8,1.5,7.2,2c3.2,0.7,6.5,1,9.8,1
			C148.3,438.1,150.6,437.9,153,437.6z M130.2,431.6c-2.8-1-5.5-2.3-8.1-3.9c-8.6-5.2-15.3-13.3-19.4-23.2
			c-5.3-13-5.4-27.8-0.3-41.6c8.4-22.8,28.9-37.2,50-37.2c1.1,0,2.2,0,3.4,0.1c4.1,0.3,8.2,1.2,12.3,2.6c1.1,0.4,2.3,0.9,3.4,1.4
			c10.8,5,19.3,14,24.1,25.8c5.3,13,5.4,27.8,0.3,41.6c-5.1,13.8-14.7,25-27.1,31.5c-10.1,5.3-21,6.9-31.5,4.9
			C134.9,433.1,132.5,432.4,130.2,431.6z"/>
	</g>
</g>
<g id="Layer_2">
	<path class="st6" d="M102.4,131.2c-1.2,2.7-1.9,5.6-3.1,8.3c-0.6,1.2-1.2,2.5-1.4,3.8c-0.5,2.5-1.3,4.9-2.1,7.3
		c-0.9,2.7-2.1,5.3-2.8,8c-0.9,3.5-1.1,7.2-2.4,10.6c-0.3,0.7-0.4,1.4-0.5,2.1c-0.2,0.8,0,1.2,1,1.5c3,0.9,6.1,1.8,9,3
		c3.1,1.3,6.2,2.7,9.5,3.4c1.2,0.3,2.4,0.7,3.6,1.2c0.6,0.2,1.1,0.5,1.8,0.5c1.7-0.2,3.4,0.6,5.2,0.6c0.5,0,0.9,0.1,1.3,0.4
		c0.1,0,0.2,0,0.2,0c0.7,0.1,1.4,0.3,2.2,0.5c0.2,0,0.4,0,0.6,0.1c4.2,0.7,8.4,1.4,12.7,1.7c1.9,0.1,3.4,0.9,5,1.8
		c0.9,0.5,1.1,1.2,0.7,2.2c-0.5,1.2-1.2,1.5-2.7,0.9c-1.8-0.8-3.6-1.3-5.6-1.7c-1.5-0.3-3.2,0.1-4.5-0.9l0.1,0l-0.1,0
		c-2.5,0.2-4.9-0.2-7.3-0.7c-2.4-0.5-4.8-1.2-7.2-1.5c-4.9-0.4-9.3-2.5-13.8-4.1c-3.7-1.3-7.6-2.2-11.1-4
		c-2.5-1.2-3.7,18.7-3.9,20.8c-0.1,1.5,0.2,1.8,1.8,1.7c4.2-0.3,8.4-0.1,12.7,0.4c5.4,0.5,10.7,0.1,16.1-0.1c1,0,2.2,0.1,3.1-0.3
		c1.8-0.8,3.5-0.3,5.3-0.1c1.5,0.2,3,0.3,4.5,0.4c2.3,0.1,4.6,0.9,7,1c0.4,0,0.7,0.3,1,0.5c0.9,0.5,1,1.1,0.4,1.9
		c-0.8,1.2-2.4,1.8-4.2,1.2c-4-1.4-8.2-1.3-12.3-1.5c-3.2-0.1-6.4,0.9-9.7,0.5c-2.4-0.3-4.7-0.2-7,0c-0.2,0-0.5,0-0.7,0
		c-5.4-0.6-10.8-0.9-16.3-0.8c-1.7,0-1.7,0.1-1.6,1.8c0.3,4.3,0.2,8.6,0.9,12.9c0.1,0.7,0.3,1.6,0,2.1c-0.9,1.3,0.1,2,0.7,2.8
		c3.2-1,6.6-1.2,10-1.9c3.7-0.8,7.5-1.3,11.1-2.3c2.6-0.7,5.3-1,7.9-1.5c3.9-0.7,7.9-0.6,11.6-2.3c0.4-0.2,0.9-0.1,1.4-0.1
		c1.2-0.1,2,0.5,2.2,1.6c0.2,0.8-0.7,2.4-1.6,2.3c-1.6-0.1-3.1,0.6-4.7,0.5c-3.3,0-6.5,0.9-9.7,1.2c-2.5,0.2-4.9,1-7.4,1.5
		c-6.2,1.2-12.3,2.6-18.5,3.3c-0.8,0.1-1.6,0.2-2.3,0.8c0.5,1.2,0.5,2.4,0.7,3.7c0.1,0.4,0.1,0.7,0.1,1.1c0.3,0.3,0.5,0.7,0.4,1.1
		c0.1,0.3,0,0.7-0.2,0.9c0,0,0,0.1,0,0.1c0.8,1.9,1.2,3.9,1.9,5.8c1.6,4.6,4.3,8.7,6.7,12.9c0.9,1.6,2.2,3,3.4,4.5
		c2.3,3.1,5.7,4.7,7.8,7.8c5.1,7.4,10.5,12.4,18.8,16.2c4.6,2.1,9.3,5.1,14.4,5.3c5.3,0.2,10.6-0.3,15.9-0.2c4.8,0.1,9.7-0.6,14.6-1
		c3.8-0.3,7.7-0.3,11.6-0.4c3.2-0.1,6.3-0.3,9.4,0.4c2.5,0.5,5,0.7,7.5,0.8c4.4,0.1,9.3,1.3,13.8,2c4.4,0.7,7.9,2.9,12.1,4.2
		c3.4,1,5.8,3.4,9.5,4.3c0.6,0.2,1.2,0.3,1.8,0.5c7.9,2.4,16.4,6.8,24.6,6.4c3.6-0.2,7.1-0.1,10.6,0.1c3.6,0.1,7.2,0.2,10.8-0.3
		c14-2,29.1-0.7,43.4-1.6c6.5-0.4,6.6-4.7,9.2-9.6c2.1-3.9,3.8-8,5.9-11.9c3.1-5.7,5.5-11.8,8.2-17.7c1.6-3.4,2.9-6.9,4.2-10.3
		c1.4-3.8,2.9-7.7,4-11.6c1.1-4,2.5-7.9,3-12.1c0.4-3.5,1.1-7,2.1-10.4c0.7-2.5,0.9-4.9,0.9-7.4c0-1.4,0.2-1.8,1.5-2
		c3.6-0.6,7.3-1,10.5-3.1c0.2-0.1,0.4-0.2,0.7-0.2c2.8-0.7,5.5-1.8,8.1-3c1.7-0.7,3.1-1.4,3.5-3.8c0.3-1.9,0.9-3.9,1.2-5.9
		c0.5-3.9,0.4-7.9,0.3-11.8c-0.2-5.5-0.7-11-1.4-16.5c-0.5-4.2-1.2-8.4-1.9-12.6c-0.5-3-0.8-6-1.6-8.9c-1.3-4.5-2.2-9.1-4.5-13.4
		c-2.2-4-3.4-8.5-5.9-12.4c-1-1.5-1.7-3.2-2.5-4.8c-1-2-1.7-4.2-2.8-6.2c-0.6-1.1-1.4-2.1-1.8-3.3c-1.3-3.9-3.1-7.6-4.9-11.2
		c-2.3-4.5-4.9-10-8.4-13.7c-3-3.2-6.3-6.1-9.3-9.3c-2.5-2.7-5.7-3.8-8.7-6c-1.5-1-3.7-1.6-4.9-2.7c-0.8-0.7-1.7-0.7-2.6-0.8
		c-4.3-0.5-8.2,1-12.1,2.6c-1.1,0.4-2.3,0.6-3.3,1.2c-3,1.8-6.4,2.8-9.3,4.6c-2.6,1.6-5.5,2.3-8,4.1c-0.7,0.6-1.4,1.2-2.3,1.7
		c-3.6,1.8-10.4,4.6-12.4,8.4c-0.9,1.6-0.5,3.7-1.1,5.5c-0.7,2-2.1,3.8-3.7,5.1c-2.9,2.4-6.6,3.6-10.4,4.1c-7.1,0.9-14.9,0.5-22-0.2
		c-8.9-0.9-16.8-1.5-25.1-5.4c-2.7-1.3-6.6-3.8-7.7-6.7c-1.5-3.9-0.6-10.3,0.2-14.3c0.6-3.1,0.7-6.3,1.8-9.3c0.4-1.1,0.3-2-1-2.5
		c-1-0.4-1.6-1.3-2.2-2.1c-1.7-2.6-3.9-4.8-6.3-6.8c-0.6-0.5-1.2-1.1-1.8-1.6c0,0-0.1-0.1-0.1-0.1c-1.2-1-2.4-2-3.7-2.9
		c-2.1-1.6-4.3-2.9-6.8-3.8c-2.6-0.9-5.3-1.6-7.9,0c-0.8,0.5-1.6,1.1-2.4,1.5c-3.1,1.3-6.2,2.6-9.1,4.5c-2.4,1.6-5,3-7.3,4.8
		c-2.8,2.1-5.8,4-8.3,6.5c-1.1,1.1-2.2,2.1-3.4,3.1c-2.2,1.8-4.6,3.5-6.7,5.4c-1.9,1.7-3.6,3.6-5.3,5.4c-1.8,1.9-3.6,3.8-5.7,5.2
		c-0.2,0.2-0.4,0.5-0.5,0.8c-1,1.8-2.4,3.2-3.6,4.9c-2.9,4.3-6.3,8.3-8.9,12.8c-2.1,3.8-4.5,7.4-6.6,11.2c-0.7,1.2-1.6,2.3-2.2,3.6
		c-1.5,3.6-3.5,6.9-5.4,10.3c-1.6,3-3.1,6-4.4,9.1C104,128.6,103,129.8,102.4,131.2z M235.2,224.6c-1.2,0-1.8-0.6-1.8-1.9
		c0-1.3,1-2.4,2.1-2.4c0.6,0,2.4,1.4,2.5,1.9C238.1,223.1,236.3,224.6,235.2,224.6z M239.6,239.5c-1.1,0.1-2-0.9-2-2.1
		c0-1.2,1.1-2.8,2-2.9c0.6,0,2.2,1.3,2.2,1.8C241.6,237.7,240.5,239.4,239.6,239.5z M249,214.2c-0.8,0-1.7-0.9-1.8-1.6
		c-0.1-1.1,0.8-2.2,1.7-2.2c1.1,0,2.1,1,2.1,2.1C251,213.6,250.3,214.2,249,214.2z M255.6,231.9c-0.8,0-1.9-1.4-1.9-2.4
		c0-1.2,0.6-1.9,1.8-2c1.1-0.1,2.2,0.9,2.2,2C257.7,230.6,256.5,231.9,255.6,231.9z M325.8,241.2c-0.7,1.9-1.6,2.5-3.6,2.1
		c-2.9-0.6-5.8-0.7-8.7-0.7c-3.2,0-6.3-0.4-9.4-1c-3-0.5-6.1-0.5-9.1-0.6c-2.4-0.1-4.9-0.1-7.3-0.5c-4.4-0.8-8.9-1-13.4-0.8
		c-1.5,0.1-3,0.1-4.5-0.3c-1.2-0.3-2.5-0.3-3.7,0.2c-1.3,0.6-1.3-0.4-1.6-1.2c-0.4-1-0.3-1.8,0.8-2c1.1-0.2,2.2-0.2,3.3-0.3
		c0.9-0.1,1.9,0,2.8,0.2c2.3,0.5,4.6,0,6.8,0.1c3,0.1,6,0.4,9,0.7c4.1,0.5,8.2,0.6,12.3,0.7c3.8,0.1,7.5,0.7,11.3,1
		c1.5,0.1,3,0.3,4.4,0.3c3-0.1,6,0.3,9-0.2C325.5,238.7,326.3,239.9,325.8,241.2z M326.3,217.9c-0.3,0.5-3.1,1.1-3.7,0.9
		c-2.2-0.7-4.4-0.8-6.7-0.2c-2.5,0.6-5,1-7.7,1c-3.8-0.1-7.7,0.3-11.4,1c-2.3,0.4-4.5,0.6-6.8,0.7c-5.5,0.4-11,0.3-16.6,0.4
		c-2.9,0.1-5.8,0.4-8.7,0.8c-0.4,0-0.8,0.2-1.2,0.1c-0.9-0.2-2,0-2.3-1.2c-0.2-0.8,1.2-2,2.2-2.2c0.3,0,0.6,0,1,0
		c2.5,0.6,5-0.3,7.5-0.3c3,0,6,0.1,9-0.3c3.2-0.4,6.5-0.4,9.7-0.6c5.7-0.4,11.3-1.6,16.9-1.7c2.2,0,4.4-0.3,6.6-0.7
		c3.1-0.5,6.3-0.8,9.4-1.2c1.5-0.2,3,1.1,3,2.5C326.5,217.3,326.4,217.7,326.3,217.9z M305.5,87.1c0.1-0.3,0.1-0.5,0.2-0.8
		c1.3-4.7,4.8-8.3,8.5-11.4c3.4-2.8,7-5.1,11.5-5.9c0.8-0.1,1.3-0.6,1.9-0.9c4.9-2.7,12.1,0.7,15,4.9c2.3,3.4,3.3,7.4,4.8,11.1
		c3,7.4,8.6,14.4,8.8,22.7c0.2,6.1-2.2,9.1-8.4,8.7c-5.9-0.4-11.6-3-16.8-5.3c-2-0.8-3.7-2.2-5.6-3.3c-2.1-1.3-4.2-2.5-6.2-3.9
		c-3.3-2.3-6.6-4.6-9.7-7.1c-1.6-1.3-3.7-3.6-4.1-5.6C305.2,89.4,305.2,88.3,305.5,87.1z M303.4,195.1c2.8-0.9,5.6-1.6,8.4-2.4
		c4.4-1.3,8.8-2.9,13.2-4.4c1.6-0.5,2.9-1.6,4.6-1.9c1.2-0.3,2.2,0.3,2.2,1.6c0.1,1.5-0.7,2.3-2.3,2.3c-0.9,0-1.7,0.3-2.5,0.6
		c-4,1.8-8,3.2-12.4,4c-2.6,0.4-5.1,1.6-7.7,2.2c-7.7,2-15.2,4.8-22.8,7.1c-2.2,0.7-4.5,1.2-6.8,1.6c-3.3,0.6-6.6,1.5-9.8,2.5
		c-2.2,0.7-4.4,0.9-6.5,1.9c-0.5,0.2-1.1,0.2-1.5-0.3c-0.3-0.4-0.2-1,0.1-1.3c0.5-0.7,1-1.4,1.9-1.6c4.4-1,8.7-2.3,13-3.5
		c3.9-1,7.8-1.9,11.7-2.8c1.9-0.4,3.8-1.2,5.5-2C295.5,197,299.6,196.4,303.4,195.1z M234.5,154c3.6-5.1,8.5-9.5,14.5-11.6
		c7.1-2.5,12.7-1.3,19.7,0.5c1.6,0.4,2.8,1.8,4.3,2.4c2.9,1.1,5.2,3,7.6,5.1c4.8,4.1,5.9,9.8,6.8,15.7c0.7,4.6-0.3,9.5-1.7,13.8
		c-3.2,9.7-13.2,14.9-22.9,16.4c-1.9,0.3-3.9,0.4-6.1,0.4c-7.7,0-16.6-2.2-21.3-7.6C226.7,179.1,226.9,164.7,234.5,154z M144.8,198
		c0.9,0.1,2.5,1.5,2.4,2.3c0,0.9-1.3,2-2.3,1.9c-1.2-0.1-2.2-1.2-2.1-2.3C142.8,198.9,143.9,197.9,144.8,198z M138.6,216.4
		c1,0,2,1,2.1,2.1c0,0.3-1.5,2.1-1.8,2.1c-1,0.1-2.6-1.1-2.6-2C136.2,217.4,137.3,216.4,138.6,216.4z M207,191
		c0.1,0.2,0.3,0.3,0.4,0.4c0.1,0,0.2,0.1,0.2,0.1c0.2,0.1,0.3,0.1,0.5,0.2c2.1,0.9,2.8,2.5,2.6,4.7c-0.3,2.7-1.5,5-2.9,7.2
		c-0.7,1.1-2.1,1.9-3.3,2.4c-2.1,0.8-3.9,2.1-5.9,2.9c-3,1.3-6,2.9-9,4.2c-2.7,1.1-5.4,2.5-8.3,3.4c-1.4,0.4-1.7,1.9-2,3
		c-2,8.4-4.7,18.3,3.9,24c0,0-0.1,0-0.1,0l0.1,0c1.9,0.7,3.5,1.9,5.4,2.8c3.9,1.8,7.7,2.8,12,2.2c1.9-0.3,4-0.3,5.8-0.8
		c2.5-0.7,5.4-1.1,7.1-3.5c0.8-1,1.8-1.6,3.1-1c0.7,0.3,1.1,0.8,0.9,1.7c-0.3,0.9-0.6,1.8-1.3,2.2c-1.5,0.9-2.7,2.4-4.7,2.5
		c-1.2,0.1-2.3,0.6-3.3,1.2c-1.7,1-3.7,1.5-5.7,1.2c-1.4-0.2-2.7,0.1-4,0.1c-6,0.2-11.3-1.9-16.2-5c-0.9-0.5-1.8-1-2.5-1.7
		c-2.4-2.2-4.4-4.6-4.8-8c0-0.4-0.1-0.8-0.4-1.1c-0.5-0.6-1.2-0.8-1.5,0c-1.2,2.7-3.9,3.7-5.9,5.5c-2.3,2.1-5.2,2.2-7.9,3.1
		c-2.5,0.7-4.8,0.5-7.1-0.3c-0.8-0.3-1.6-0.1-2.3-0.2c-1.6-0.2-3.2-0.3-4.7-1.2c-0.4-0.2-0.9-0.4-1.3-0.4c-3.3-0.5-5.6-2.5-7.8-4.7
		c-0.4-0.4-0.7-1-1.4-1.3c-0.8-0.4-1.5-0.9-1.1-2c0.2-0.7-1-0.9-0.6-1.7c0.5-0.3,1-0.3,1.6-0.4c2.1-0.4,2.2-0.3,2.9,1.7
		c0.4,1.1,1.4,1.8,2.3,2.5c1.3,1,2.4,2.4,4.4,2.5c1.1,0,2.3,0.7,3.4,1.1c0.9,0.4,1.8,0.7,2.8,0.6c1.2,0,2.4,0.2,3.5,0.7
		c2.2,1,4.3,0,6.4-0.4c2.4-0.4,4.5-1.8,6.6-3.1c1.8-1.1,3.1-2.3,4.2-3.7c3.3-4.5,3.6-10.4,5.7-15.7c0.9-2.2,0.3-4.1-1.3-5.6
		c-1-0.9-1.7-1.9-2.4-2.9c-2.3-3.5-5.3-6.5-7.2-10.2c-0.9-1.7-1.7-3.4-1.8-5.4c-0.1-1.6-0.2-3.1-0.4-4.7c-0.1-1,0.2-1.6,1-1.9
		c3.7-1.8,7.5-3.3,11.7-3.5c2.3-0.1,4.7-0.4,7-0.5c3.3-0.1,6.6,0.5,9.8,0.9c1.9,0.3,3.6,1.1,5.5,1.3c1,0.1,1.9,0.7,2.8,1.3
		c0.7,0.5,1.5,0.9,2.3,1.1C205,189.3,206.3,189.7,207,191z M153.1,212c0.1-1.3,0.7-1.8,1.9-1.8c1.5,0.1,1.9,0.5,1.8,1.8
		c-0.1,1.3-0.7,2.2-1.5,2.1C153.7,214,153,213.3,153.1,212z M149.6,81c1.4-1.3,2.1-2.9,3.2-4.4c2.6-3.4,5.3-6.7,8.7-9.3
		c3.9-2.9,7.7-5.9,11.5-8.9c3.3-2.5,7-4.1,10.6-6c3.8-2.1,9.9-1.2,12.6,2.2c2.7,3.5,5.3,7.1,6.4,11.5c0.8,3.1,3.9,7.6,2.1,10.8
		c-2.1,3.6-9.8,4.1-13.4,5.1c-5.1,1.5-10.4,2.7-15.7,3.1c-2.4,0.2-4.8,0.8-7.2,1.4c-3,0.7-6.1,1.1-9.5,1c-1.4,0.2-3.1-0.1-4.8-0.6
		c-1.8-0.5-3.1-1.4-4.2-2.9C148.7,82.8,148.5,82,149.6,81z M118.7,139.9c1.2-2.8,2.8-5.4,4.6-8c2.5-3.5,7.8-6.5,11.7-8.2
		c4.1-1.8,9.1-3,13.9-2.9c3.6,0.1,7,0.8,10,2.5c7.3,4.1,17.1,11.4,18.8,20.2c0.8,4,0.9,8.1,0.3,12.1c-0.5,3.9-2.5,6.7-4.4,10.1
		c-0.5,0.8-1.1,1.5-1.9,2.1c-2.7,2.3-5.6,4.4-8.8,5.8c-11.3,4.8-26.3,4.8-36.2-3.5c-4.6-3.9-8.4-7.5-9.9-13.6
		C115.7,150.9,116.6,145,118.7,139.9z"/>
	<path class="st7" d="M176.6,188c-2.6,0.5-5.2,0.6-7.5,1.9c-1.2,0.6-2,1.4-2,2.7c0,1.6,0.1,3.3,1,4.8c1.4,2.1,2.5,4.4,4.1,6.3
		c0.3,0.4,0.6,0.7,0.5,1.2c0.5,0.5,1.1,0.8,1.5,1.4c1,1.4,2,2.8,2.9,4.3c1.4,2.1,3.6,3.1,5.7,2c1.6-0.8,3.3-1.1,4.8-1.9
		c5.2-2.5,10.3-5,15.5-7.6c2.2-1.1,2.9-3,3.9-4.9c0.2-0.4,0-0.9-0.1-1.4c-0.3-1.8-1.9-2.1-3-3.1c-5.5-4.6-12.3-5.3-19-6.2
		C182.1,187.3,179.4,187.5,176.6,188z"/>
	<g>
		<path class="st8" d="M261.1,72.3c0.1,0.6,0.6,0.6,1.2,0.5c1.3-0.3,4.6-0.3,5.8-1.7c0.3-0.3,0.5-0.8,0.5-1.3c0-2.4-5-2.8-6.8-3.4
			C255.6,64.5,260.8,69.9,261.1,72.3z"/>
		<path class="st8" d="M235.1,66.7c-1.7,0.5-3.4,1.1-5.3,1.1c-0.9,0-0.8,0.6-0.6,1.1c0.2,0.6,0.6,0.9,1.2,0.9
			c1.9,0.2,3.7,0.4,5.6,0.6c1.9,0.2,2.8-0.3,3.5-2c0.2-0.5,0.3-1,0.5-1.8C238.3,66.9,236.6,66.3,235.1,66.7z"/>
	</g>
	<g>
		<path class="st9" d="M120.3,157.3c2.8,6.2,10.7,12,17.1,14.1c4,1.3,8.4,2.2,12.7,2.2c1.7,0,3.3-0.1,4.9-0.3
			c10.6-1.7,20.2-11.3,20.3-22.3c0-4.7-1.5-9.2-3.9-13.2c-4-6.6-12.6-12-20.1-13.4c-3.5-0.6-6.9-0.2-10.3,0.5
			c-7.7,1.6-14.4,6.8-17.8,13.7c-2,4.1-4.1,8.2-3.6,12.9C119.9,153.8,119.3,155.1,120.3,157.3z M131.8,146.7
			c1.1-1.5,2.4-2.1,3.8-2.8c0.6-0.3,1.3-0.4,1.8-0.2c2.5,0.7,4.5,2.5,5.2,5c1,3.2,0.1,4.4-1.4,6.8c-1.3,2.1-3.4,2-5.8,2.3
			c-1.9-0.6-3.8-1.9-4.7-4.1C129.9,151.2,130.1,149,131.8,146.7z"/>
		<path class="st9" d="M239.7,187.8c4,3.1,8.8,4.3,13.5,4.9c4.9,0.6,9.8,0.1,14.7-1.3c4.3-1.3,7.9-3.6,10.4-7.3
			c5.9-8.8,8.7-21.8,0.8-30.2c-1.7-1.8-3.7-3.9-5.8-5.2c-11.8-7.3-28.2-4.4-36,7.2c-2.6,3.8-4.1,8.2-4.5,12.8c-0.2,2-0.3,5,0.1,7.7
			c0.2,1.7,0.7,3.3,1.4,4.4C236,183.1,237.3,185.9,239.7,187.8z M242.5,166.2c1.4-3.4,4.5-4.5,7.8-2.7c0.1,0.1,0.3,0.1,0.4,0.2
			c2.8,0.7,3.1,2.8,3.1,5.3c0,2.7-0.9,4.3-3.2,5.1c-2.7,1-5.4,1-7.7-1.1c-1.1-1-1.1-2.5-1.1-3.8
			C241.9,168.2,242.1,167.2,242.5,166.2z"/>
	</g>
	<path class="st4" d="M228.4,65.8c3.3-2.7,7.2-1.4,11-2c2.2-0.4,2-0.8,3.3-3c1.1-1.7,2.4-3.3,3.7-4.9c1.8-2,3.9-2,5.6,0.1
		c1.4,1.7,2.5,3.7,3.5,5.6c0.4,0.8,0.8,1,1.8,1.1c2.6,0.3,5.5-0.1,7.8,1.4c1.2,0.8,2.7,0.7,3.9,1.4c0.7,0.4,0.9-0.3,1.2-0.8
		c0.4-0.8,0-1.7,0.6-2.5c1.1-1.6,1-3.6,1.9-5.5c-1-0.2-1.7-0.7-2.5-1.2c-1.5-1-2.6-2.1-3-4.1c-0.5-2.6-1.6-5.1-2.7-7.5
		c-0.4-0.9-1.8-2.9-3-2.5c-0.7,0.3-1.2,1-1.5,1.7c-1.6,2.7-3.2,7-5.9,8.8c-2.7,1.8-5.5,0.4-8.6,0.8c-5,0.6-5.2-6.5-6.2-10.1
		c-0.2-0.6-0.6-1.3-1.1-1.1c-0.2,0.1-0.4,0.3-0.6,0.5c-2.1,2.8-4,6.8-5.2,10c-0.9,2.4-3.4,1.9-4.8,3.4c-0.3,0.3-0.5,0.6-0.6,1
		C225.9,59.4,228.9,62.8,228.4,65.8z"/>
	<g>
		<path class="st9" d="M136.8,154.2c1.2,0.1,3.6-1.8,3.6-2.9c0.1-1.7-2-4.1-3.6-4.2c-1.4-0.1-3.1,1.7-3.1,3.3
			C133.7,152,135.4,154.1,136.8,154.2z"/>
		<path class="st9" d="M248,170.9c1.3,0,2.3-1.1,2.3-2.4c0-1.2-1.5-2.6-2.6-2.5c-1.1,0.1-2.2,1.4-2.2,2.7
			C245.5,170,246.5,171,248,170.9z"/>
	</g>
	<g>
		<path class="st8" d="M154.6,83.7c0.3,0.1,0.6,0.2,0.9,0.2c4.1,0.9,8.2,0.3,12.2-0.5c5.1-1,10.2-0.9,15.3-2.2c0.1,0,0.1,0,0.2,0
			c4.8-1.3,14.4-2.1,17.1-7.1c1.4-2.5-0.4-7.1-1.3-9.6c-1.4-3.9-4.5-8.5-8.7-9.4c-4.3-0.9-8.6,1.9-12.1,4c-4.5,2.7-8.7,5.9-12.9,9
			c-1.9,1.4-3.8,3.5-5.5,5.2c-2.3,2.3-4.3,4.8-6,7.6C152.7,82.5,152.8,83,154.6,83.7z"/>
		<path class="st8" d="M314.3,96.2c1.9,2.4,4.7,4.1,7.3,5.5c8.1,4.4,19,13,28.9,9.9c2.4-0.7,2.4-4.2,1.5-8c-1-4.5-3.1-9.5-4.1-11.2
			c-3.3-6-5-13.1-9.2-18.6c-1.5-2-3.8-3.6-6.3-3.8c-2.2-0.2-4.2,0.7-6.2,1.6c-5.3,2.3-11.6,6.1-15.2,10.8c-3,1.2-3.2,6.1-1.6,8.4
			C310.9,92.7,312.8,94.3,314.3,96.2z"/>
	</g>
	<path class="st5" d="M231.9,87.3c7.1,0.7,13.9,3,21.1,2.7c0.9,0,1.7,0,2.6,0c3,0,6.2,0.3,9.2-0.1c3.2-0.4,6.7-1,9.2-3
		c3.4-2.8,5.9-6.7,6.5-11c0.5-3.7,0.5-7.9,0.4-11.6c-0.2-3.5-1.8-6.4-3.5-9.2c-0.7,0.3-0.8,0.8-0.9,1.3c-0.9,3.1-2.3,5.7-3.4,8.6
		c-1,2.7-0.2,6-1.6,8.6c-1.4,2.7-4.1,1.6-6.9,2.2c-2.7,0.6-3.9,0.7-6.6,0c-0.3-0.1-0.7-0.2-0.9-0.4c-0.2-0.2-0.3-0.5-0.4-0.7
		c-1.4-3.9-2.5-7.9-4.6-11.5c-0.7-1.1-1.2-2.3-2-3.4c-0.9-1.4-1.3-1.4-2.3-0.3c-2.1,2.4-3.7,5.2-4.7,8.1c-0.4,1.4-1.1,2.7-1.6,4
		c-1.5,4-3.4,2.8-6.7,2.5c-2-0.2-4.1-0.5-6.1-0.7c-1.4-0.2-2.4-0.8-2.7-2.3c-0.1-0.7-0.4-1.3-0.6-2c-0.7-3.2-0.5-6.6-1.7-9.7
		c-0.8-2.1-1.1-4.4-3.2-6c-1.6,1.5-2.2,3.4-2.8,5.4c-0.7,2.4-1.2,4.9-1.9,7.3c-1.3,4.4-1.8,10.6,0.9,14.6
		C219.9,85.5,226.6,86.8,231.9,87.3z"/>
	<path class="st10" d="M424.3,165.7c-0.3-2.1-1.4-3.8-2.9-5.3c-2.3-2.3-5-4-7.1-6.6c-0.9-1.1-2.2-2.1-3.6-2.7
		c-1.9-0.8-3.9-1.6-5.9-2.1c-3.8-0.9-7.3-2.8-11.2-3.5c-0.5-0.1-0.9-0.2-1.4-0.2c-0.9,0-1.4,0.3-1.2,1.3c0.1,0.5,0.3,1.1,0.4,1.6
		c0.3,1.8,0.7,3.7,1.1,5.5c0.6,3,0.6,6,1.1,8.9c0.5,2.9,0.9,5.9,1,8.9c0.1,4.5,0.6,9.1,0.4,13.6c-0.1,1.6,0,3.3-0.1,4.9
		c-0.2,1.7-0.3,3.4-0.5,5.2c0.5,0.3,0.7,0.1,0.9,0c0.3-0.2,0.5-0.4,0.8-0.5c8.4-3.7,16.2-8.6,23.3-14.4c1.4-1.2,2.6-2.6,3.5-4.1
		c1.1-1.8,2-3.7,2.2-5.9C425.2,168.7,424.5,167.2,424.3,165.7z"/>
	<g>
		<path class="st9" d="M155.9,322c0-0.4,0.3-0.8,0.8-0.8c0.3,0,0.6-0.1,0.8-0.2c2.5-0.7,4-2.5,5.1-4.9c1.1-2.3,2.1-4.6,3.3-6.9
			c0.6-1.2,1.3-2.4,2-3.6c0.3-0.5,0.6-0.9,0.8-1.4c0.5-1,0.3-1.7,0-2.7c-0.3-1.2-0.4-2.3,0.2-3.2c-0.1-0.4-0.1-0.7,0-1.2
			c0.4-2.8,0.9-5.7-0.4-8.4c-0.9-1.8-1.4-2.3-3.4-2.1c-2.6,0.2-5.2,0.8-7.8,0.6c-1.4-0.1-2.8-0.2-4.2-0.2c-1.8,0.2-3.7,0.3-5.5,0.2
			c-0.1,0-0.2,0-0.3,0c-2.3,0.2-4.6,0-6.7-0.9c-0.4-0.2-1-0.4-1.4-0.3c-2.6,1.1-5.6,1.2-8.2,2.3c-3.1,1.4-6.1,2.9-8.8,5.1
			c0,0,0,0,0,0c0,0,0.1,0,0.1,0c0.2,0-4.3,4.6-4.9,5c-1.6,1.1-3,1.8-4.8,2.5c-4.7,2-9.7,3.1-13.5,6.9c-1.1,1.1-2.1,2.2-3.1,3.4
			c-0.4,0.5-0.9,1.1-1.3,1.6c-3,4.2-5.5,8.7-8.2,13c-0.3,0.5-0.7,1-1,1.5c-0.1,0.3-0.2,0.6-0.3,0.9c-0.9,3.4-3.1,5.7-5.5,8
			c-2.1,3.3-4.3,6.6-6.4,9.9c-0.2,0.6-0.3,1.2-0.5,1.7c-0.6,1.5-1.4,2.9-2.8,3.8c-0.8,1.3-1.7,2.6-2.7,3.8
			c7.9,13.6,17.3,26.3,28.2,38c-1.8-10.5-0.8-21.5,3.1-32C108.3,336,132.1,320.3,155.9,322z"/>
		<path class="st9" d="M300.7,432.8c-0.2-2-0.1-4.1-1-6c-0.9-1.6-1-3.5-1-5.2c0-5.5,0.1-11-0.1-16.5c-0.1-4-1-7.9-2.7-11.4
			c-2-4.2-4.9-7.9-6.3-12.4c-0.4-1.2-1-2.3-1.3-3.5c-0.2-0.9-0.6-1.8-1.1-2.6c-1.8-2.8-3.1-5.8-3.5-9.2c-0.4-3.8-1-7.7-2.5-11.2
			c-1.7-4.1-3.4-8.1-5.7-11.9c-0.9-1.5-2-3-3.7-3.9c-1-0.5-1.8-1.5-2.3-2.4c-0.6-1.2-1.4-2.1-2.1-3.1c-0.7-1.2-1.6-2.1-2.3-3.3
			c-1.4-2.4-2.8-4.8-4.5-7c-2.2-2.9-4.3-5.9-6.9-8.4c-1.9-1.9-3.4-4.1-5.6-5.7c-1.3-1-2.7-1.9-4.1-2.8c-1.4-0.9-2.5-2.3-4.1-2.9
			c-1.9-0.7-2.5-2.7-3.3-4.4c-0.5-1.1-1.4-1.7-2.5-2.2c-2-0.9-4.1-1.6-6-2.7c-2.5-1.4-5.2-2.2-7.9-2.9c-5.2-1.3-10.4-2.3-15.6-3.7
			c-2.4-0.6-4.8-0.9-7.2-1c-1.6-0.1-2.9,0.4-4.3,1.1c-0.5,0.3-1.1,0.6-1.6,0.8c-2.6,2-5.3,4.1-7.8,6.4c-0.5,0.5-0.9,1-1.5,1.4
			c-0.5,0.5-1,1-1.4,1.5c-0.2,0.5-0.6,0.9-1.1,1.2c-1.6,1.9-2.9,4-3.8,6.2c-0.1,0.3-0.2,0.6-0.3,0.9c-0.1,0.4-0.2,0.9-0.4,1.3
			c-0.7,2.7-0.5,5.4,0.2,8.2c1.1,2.3,1.4,5.1,3.3,7l-0.1-0.1l0.1,0.1c0.9,1.1,2.2,2,2.5,3.3c0.6,2.3,2.5,3.1,4.1,4.4
			c0.6,0.4,1.2,0.7,1.7,1.2c0,0,0,0,0,0c1.1,0.6,2.2,1.3,3.2,2c0.4,0.1,0.9,0.2,1.4,0.3c1.2,0.2,2.3,1.1,3.5,1.2
			c0.4,1.7,2.2,1.4,3.2,2.2c0.3,0.3,0.6,0.7,0.9,1.1c-0.1,0-0.3-0.1-0.4-0.1c0,0-0.1,0.1-0.1,0.1c0.2,0,0.4,0,0.5,0
			c1.2,0.5,2.5,1.3,3,2.3c0.7,1.3,2.1,1.2,2.9,2.2c1.2,1.4,2,3.3,3.8,4c0.6,0.2-0.1,1.2,0.8,1.5c1,0.4,5.2,3.9,5.8,4.7
			c0.5,0.6,0.7,1.1,0.6,1.7c0.2,0.2,0.4,0.4,0.6,0.7c0.5,0.2,0.8,0.7,0.9,1.2c0,0.2,0,0.4,0,0.6c0.1,0.1,0.1,0.3,0.2,0.5
			c0.3,1,0.8,2,0.8,2.9c0.1,1.1,0.5,1.7,1.1,2.5c1.9,2.2,2.7,5.1,4.1,7.6c0.4,0.8,0.5,1.9,0.6,2.9c0.1,1.6,0.7,3.1,1.5,4.6
			c1.6,2.8,4.1,5,5.3,8.1c0.4,1,1,1.9,1.9,2.7c0.7,0.6,1.5,1.4,1.8,2.4c1.4,4.6,2.6,9.3,3.6,14.1c0.2,0.8,0.2,1.6,0.5,2.3
			c1,2.3,1,4.6,0.6,7c-0.3,1.8-0.3,3.6,0.5,5.1c0.9,1.8,1.4,3.7,1.7,5.6c0.6,4.4,1.3,8.7,0.8,13.2c-0.2,1.8-0.2,3.6,0,5.4
			c0.2,2,0.7,4,0.4,5.9c-0.4,1.9-0.3,3.8-0.3,5.6c-0.4,1-0.7,1.9-1.1,2.9c-0.3,0.6-0.6,1.2-0.8,1.9c3.1,0.1,6.2,0.2,9.3,0.2
			c16.5,0,32.6-1.9,48.4-5.6c0.3-0.5,0.4-1.1,0.5-1.8c0.2-1.1,0.8-1.9,1.2-2.8c0.4-0.9,0.8-1.7,0.7-2.7c-0.2-2.5,0.2-5,0.4-7.5
			c0.1-1.3,0-2.7-0.2-4C300.9,435.1,300.8,433.9,300.7,432.8z"/>
	</g>
	<g>
		<path class="st5" d="M378.4,287.9c-0.4-2-2.3-2.6-4.3-2.4c-1.3,0.1-2.7,0.6-3.7,1.3c-3.3,2.3-5.7,5-9.6,6.9
			c-14.3,7-29.4,8.5-45.1,9.6c-18,1.2-36.1,1.7-54.2,1.2c-4.3-0.1-8.4-1.4-12.4-2.8c-2.7-1-5.6-1.7-8.2-2.9
			c-0.3-0.1-0.6-0.1-0.9,0.3c0.4,0.6,0.1,1.9,1,2c2.3,0.2,3.6,1.9,5.2,3c2.1,1.5,4.5,2.7,6.1,4.8l-0.1,0.1l0.1,0
			c1,0.2,1.5,1.1,2,1.8c1,1.2,1.8,2.6,2.9,3.7c2.6,2.6,5.2,5.2,7.2,8.5c2.8,4.5,11.7,6.9,16.9,6.9c3.5,0,6.9,0.7,10.4,0.2
			c0.2,0,0.5,0,0.7,0.1c6.7,1.6,14.9,0.6,21.7,0.2c9.1-0.6,17.7-2.4,26.4-4.4c7.6-1.7,15.6-0.9,22.5-5.3c5-3.2,9.7-9.9,12.5-15.1
			c1-1.8,2.3-3.4,2.7-5.5c0.7-3.7,1.5-7.4,0.3-11.2C378.3,288.3,378.4,288.1,378.4,287.9z"/>
		<path class="st5" d="M103.2,262.2c-2.6-2-4.8,11.5-5,12.8c-0.7,4.7,1.8,9.6,4.7,13.2c4.2,5.1,11.4,12.3,17.1,4.6
			c1.1-1.4,2.4-2.7,3.5-4.1c0.3-0.5,0.9-0.7,1.4-0.8c2.6-0.6,4.8-1.8,6.9-3.6c-5.9-2.9-11-5-16-9.7
			C111.7,270.4,107.9,265.8,103.2,262.2z"/>
	</g>
	<g>
		<g>
			<path class="st11" d="M386.6,261.2c0.3-0.2,0.4-0.6,0.7-1c0.6-0.9,1.2-1.9,1.9-2.7c5.5-5.7,9.4-12.5,13.6-19
				c3.1-4.8,5.5-9.9,8-15c0.6-1.2,0.7-2.7,1.4-3.7c2.1-3,3.6-6.2,4.8-9.6c1.1-3.2,2.3-6.3,3.1-9.7c1.4-5.8,2.3-11.6,3.2-17.4
				c0.1-0.4,0.3-0.9-0.3-1.2c-2,1.4-4.1,2.7-5.9,4.3c-3,2.5-6.4,4.6-9.8,6.4c-7.3,3.8-14.4,7.8-22.3,10.6c-4.8,1.7-9.4,4.1-14.5,4.8
				c-1.2,0.2-1.8,0.9-2,2.3c-0.3,2.2-0.7,4.3-1.1,6.5c-0.7,3.4-1.7,6.7-2.1,10.2c-0.3,2.5-0.5,5-1.5,7.4c-1.4,3.4-2.1,7.1-3.5,10.5
				c-0.9,2.2-1.5,4.7-2.5,6.8c-1.7,3.7-2.7,7.6-4.6,11.1c-0.5,0.9-1,1.7-1.4,2.7c-1,2.5-2,5-3.2,7.4c-1.6,3.3-3.6,6.5-5.1,9.8
				c-1.1,2.5-5.8,9.1-5.5,11.6c0.5,4.3,5.8,1.8,8.8,1c16.3-4.7,25.9-16.5,35.8-29.6C384,264.2,384.9,262.4,386.6,261.2z"/>
			<path class="st11" d="M391,371.7c-1.1-3.1-1.9-6.2-3.4-9.1c-0.5-1.1-1.2-2-1.7-3.1c-1.1-2.5-2.1-5.1-3.5-7.5
				c-2.7-4.4-5.1-9.1-8.4-13.1c-0.9-1.1-1.6-2.3-2.4-3.5c-2.1-2.8-5.1-4.8-7.5-7.2c-0.7-0.7-1.7-1.1-2.8-1.3
				c-0.7-0.1-1.3-0.2-1.6-0.9c-0.6-1.2-1.5-1.1-2.4-0.6c-1.5,0.8-3.1,1.1-4.8,1.2c-2.5,0.2-4.9,0.9-7.3,1.6
				c-2.3,0.7-4.7,1.4-7.1,1.6c-4.6,0.5-9.1,1-13.6,1.8c-2.3,0.4-4.6,1-7,1c-0.8,0-1.6,0.1-2.3,0.2c-3.9,0.3-7.7,0.7-11.6,0.8
				c-3.8,0.1-7.6-0.3-11.4-0.3c-0.9,0-1.6-0.6-2.6-0.4c-3.7,1-7.4-0.1-11.1-0.4c-2.8-0.2-5.4-1.4-8.4-1.6c0.7,1.7,2,3.1,2.4,4.8
				c0,0,0,0,0,0c1.7,0.5,3,1.7,4,3c2.2,2.9,3.4,6.3,5,9.5c0,0.1,0,0.2,0,0.2l0,0.1l0-0.1c1,1.2,1.7,2.6,2.2,4.1
				c0.6,1.9,1.2,3.6,1.5,5.6c0.3,2.2,1,4.3,1.4,6.5c0.3,1.8,0.5,3.7,1.4,5.2c2.4,3.9,3.5,8.4,5.4,12.5c0.6,1.2,0.9,2.6,1.7,3.6
				c1.9,2.5,3.2,5.2,4.4,8.1c1.7,4.2,2.1,8.5,2.2,12.9c0.1,4,0.2,8,0.2,12.1c0.1,4.2,1.4,8.2,1.9,12.4c0.4,3.4,1.1,6.7,0.5,10.1
				c-0.4,1.9-0.7,3.7-0.3,5.6c0.3,1.3,0,2.5-0.3,3.7c-0.2,0.6-0.5,1.2-0.7,1.7c-0.4,0.4-0.8,0.8-0.9,1.4
				c10.2-2.6,20.1-5.9,29.9-10.1c24.5-10.4,46.5-25.1,65.6-43.8c-1.5-3.2-2.5-9.3-2.6-10C394.1,384,393.1,377.7,391,371.7z"/>
		</g>
		<path class="st11" d="M58.6,151.8c0.1,0.3,0.3,0.5,0.4,0.8c0.6,1.4,1,2.9,1,4.4c0,0.6,0,1.2,0.1,1.8c0.1,1.3,0.2,2.6,0.4,3.9
			c0.5,3.1,0.8,6.2,1.6,9.2c1.3,5.1,3.3,10,4.2,15.2c0.3,1.8,0.5,3.7,1.1,5.3c0.8,2.1,1.5,4.3,2.4,6.4c1.5,3.6,2.3,7.3,3.4,11
			c1,3.5,2.2,6.9,3.7,10.2c1.5,3.4,2.8,7,5,10.1c1.7,2.4,2.8,5.1,4.6,7.4c0.3,0.4,0.6,1,1,1.3c0.1-0.1,0.3-0.1,0.4-0.1
			c0.1,0,0.1,0,0.2,0c-0.2-0.8,0-1.6-0.4-2.3c-1-1.4-0.9-3.1-1.2-4.8c-0.3-1.8-0.6-3.6-0.9-5.3c-0.2-1.1-0.4-2-1.9-1.8
			c-0.9,0.1-1.5-0.5-1.6-1.4c-0.1-0.8,0.3-1.5,1-1.7c1.4-0.3,1.4-1.3,1.3-2.4c-0.3-2.5,0.2-5.2-0.9-7.6c0.9-2.7-0.5-5.5,0.1-8.2
			c0.2-1.1-0.3-1.5-1.4-1.7c-1.4-0.3-2.8-0.4-4.2-0.4c-0.7,0-1.3-0.2-1.4-1c-0.1-0.7,0.4-1,1-1.2c1.3-0.5,2.5-0.8,3.9-0.7
			c2.2,0.3,2.2,0.2,2.3-2c0.1-2-0.1-4.1,0.1-6.1c0.2-2.5,0-5,0.7-7.5c0.5-2.1,0.8-4.2,1.5-6.2c0.3-0.9,0.2-1.4-0.9-1.8
			c-1.2-0.4-2.5-0.6-3.7-0.8c-1.3-0.2-2-0.9-1.9-1.9c0.1-0.9,1-1.5,2.2-1.3c0.9,0.1,1.9,0.4,2.8,0.5c1.8,0.3,2,0.1,2.5-1.6
			c0.8-2.6,1.4-5.2,1.9-7.8c0.6-3.1,1.4-6.3,2.9-9.2c1.7-3.4,2-7.3,3.3-10.8c0.6-1.7,1.5-3.3,2.1-5c1-3.1,2-6.1,3.7-8.9
			c0.5-0.7,0.7-1.6,1.1-2.4c1-2,1.7-4.2,3-6.2c0.8-1.2,2-2.4,2.1-4.3c-2,1.4-4.4,1-6,2.7c-0.3,0.3-0.9,0.2-1.4,0.2
			c-0.5,0-0.9,0-1.4,0.1c-2.6,0.9-5.3,1.2-8,1.9c-2.2,0.5-4.5,0.6-6.7,1c-1.6,0.3-3.2,0.8-4.7,1.9c-0.2,0.1-0.5,0.1-0.7,0.2
			c-0.4,0.1-0.8,0.2-1.1,0.4c-2,0.7-4,1.5-6.1,1.9c-0.9,0.2-1.7,0.5-2.4,1.1c-1.2,0.9-2.5,1.7-3.9,2.2c-2.5,1-4.4,2.5-5.5,4.9
			c-0.9,1.8-1.9,3.6-2.1,5.7c-0.4,4.1,0.8,8,1.1,12C58.2,151.3,58.5,151.6,58.6,151.8z"/>
	</g>
	<g>
		<path class="st6" d="M167.7,324.3c0.6,0.2,1.1,0.4,1.7,0.6c1.1,0.4,2.2,0.8,3.2,1.3c1.3,0.3,2.6,0.6,3.9,1
			c-1.2-2.3-2.6-4.7-3.7-7.1C170.8,321.1,169.1,322.6,167.7,324.3z"/>
		<g>
			<path class="st6" d="M187.6,287.2c0.7-0.5,1.5-0.7,2.1-1.9c-6.3,0.3-12.4,0.1-18.5,0.8c0.2,1.3,1.2,2.3,1.1,3.6
				c-0.1,1.8,0.2,3.5,0.4,5.2c0,0.2,0.1,0.5,0.1,0.7c0.4,0.3,0.7,0.9,0.4,1.5c-1.3,2.7-0.7,5.8-1.2,8.6c-0.5,2.6-1.8,5.1-3,7.5
				c-2,3.8-4.9,7.5-8.8,9.2c1.4,0.2,2.7,0.5,4.1,0.8c1.8-2.9,4.2-5.3,7.5-6.5c-0.1-0.4-0.2-0.7-0.3-1.1c-0.6-2.8-0.4-5.6,0.5-8.3
				c0,0,0,0,0-0.1c0.1-0.2,0.2-0.5,0.3-0.8c0.7-2.6,1.7-5.3,3.4-7.3c3.1-3.7,6.1-7.6,10.5-9.9c0.2-0.1,0.2-0.1,0.2-0.3
				C186,287.9,186.9,287.6,187.6,287.2z"/>
			<path class="st6" d="M239,444.4c-0.3-1.7-0.5-3.6-0.1-5.1c0.5-2.7,0.6-5.3,0.3-8c-0.4-3.4-0.4-6.8-2.2-9.9
				c-0.5-0.9-0.7-1.9-0.7-3c-0.1-1.6,0-3.3,0.1-4.9c0.2-2.1-0.8-4.2-0.7-6.3c0.1-2.6-1-4.9-1.8-7.2c-0.6-1.6-1.1-3.3-1.3-5
				c-0.1-1.3-0.6-2.4-1.5-3.4c-0.6-0.7-1.3-1.4-1.7-2.2c-1.7-3.2-3.4-6.4-5.7-9.2c-0.4-0.5-0.7-1-1-1.6c-0.8-2.1-0.5-4.6-2.3-6.4
				c-0.1-0.1-0.1-0.5-0.1-0.7c0.2-1.5-0.7-2.5-1.4-3.7c-1.5-2.3-3.2-4.5-3.4-7.3c0-0.5-0.3-0.9-0.6-1.3c-2-2.7-3.5-5.8-6-8.1
				c-0.8-0.7-1.8-1.3-2.2-2.4l-0.1-0.1l0.1,0.2c-0.9-0.3-1.5-0.8-2-1.5c-0.7-1.1-1.6-1.9-2.6-2.7c2.9,3.8,5.4,8.1,7.3,12.7
				c5.6,13.9,5.8,29.6,0.4,44.3h0c-5.4,14.7-15.6,26.6-28.9,33.5c-6.3,3.3-12.8,5.3-19.5,5.9c2.2,1,4.4,2,6.6,2.9
				c22.6,9.6,46.5,15,71.1,16.3c0.1-1.8,0-3.6-0.2-5.4c0-0.1-0.1-0.3-0.1-0.4C239.3,451.2,239.7,447.9,239,444.4z"/>
		</g>
	</g>
</g>
<g id="Layer_4">
	<g>
		<path d="M447.5,166.6c-10.8-25.5-26.3-48.5-45.9-68.1C383,79.8,361.5,65,337.7,54.3c-1.7-1.3-3.5-2.4-5.6-2.8
			c-0.5-0.1-1-0.2-1.5-0.2c-2.3-0.1-4.5,0.6-6.7,1.4c-1.8,0.7-3.7,1.5-5.5,2c-4.7,1.4-8.9,4.1-13.3,6.2c-2.2,1-4.5,2-6.6,3.1
			c-2.6,1.5-5.2,3-7.6,4.7c-2,1.4-4.4,2.2-6.1,3.9c-0.3,0.3-0.7,0.4-1.1,0.1c-0.4-0.4-0.4-0.8-0.2-1.3c2.4-6.2-0.6-16.3-4.8-21.2
			c-1.1-1.2-2.5-0.8-3.6,0.7c-0.4,0.6-0.3,1.7-1.5,1.5c-1-0.2-1.8-0.5-2.3-1.7c-0.8-2-1.8-3.8-2.3-5.9c-0.3-1.5-1.4-3.4-2.6-4.8
			c-0.3-0.4-0.7-0.9-1-1.2c-0.9-1-2.2-1.7-3.6-1.5c-1.4,0.1-2.5,1.1-3.4,2.3c-0.2,0.3-0.4,0.6-0.7,0.9c-1.3,1.9-2.5,4-3.4,6.1
			c-2,4.2-6.3,6.8-9.6,2.1c-1.9-2.7-2-6.1-3.3-9.1c-0.3-0.7-0.7-1.5-1.2-2.1c-0.3-0.4-0.7-0.8-1.2-0.8c-0.3,0-0.6,0.3-0.8,0.5
			c-1,0.9-1.9,1.8-2.8,2.7c-2,2.2-3.4,4.5-4.7,7.8c-0.4,1-3.7,7.2-5.5,4.6c-0.8-1.1-2.2-1.4-3.2-2.3c-1.3-1.1-2.3-0.9-3.4,0.4
			c-0.4,0.5-0.8,1-1.2,1.5c-0.6,1-1.3,0.8-1.9,0.1c-2.4-2.7-5.1-4.9-7.5-7.7c-0.2-0.2-0.4-0.4-0.6-0.6c-1-1.1-2-2.1-3-3.2
			c-2.3-2.1-4.8-4-7.6-5.1c-3.4-1.3-7.9-3.1-11.4-1.4c-3.7,1.8-7.5,3.4-11.1,5.4c-2.2,1.2-4.2,2.8-6.3,4.1
			c-7.8,4.9-15.6,9.9-22.1,16.5c-1.9,1.9-3.8,3.9-5.6,5.9c-3,3.2-5.9,6.5-8.7,9.9c-3.1,3.8-6,7.6-8.6,11.7
			c-2.3,3.6-4.5,7.2-6.7,10.9c-2.5,4.2-4.9,8.4-7.1,12.8c-0.2,0.5-0.6,0.7-1.1,0.7c-1.3,0.2-2.6,0.9-3.9,0.9c-1.4,0-2.4,1-3.7,1.4
			c-2.3,0.6-4.6,1.1-6.8,1.8c-0.2,0.1-0.3,0.1-0.5,0.2c-0.4,0.1-0.7,0.3-1.1,0.4c-1,0.4-2.2,0.4-3.3,0.5c-0.8,0-1.5,0.1-2.3,0.1
			c-0.4,0-0.9,0.1-1.3,0.2c0,0,0.1-0.1,0.1-0.1c-0.2,0-0.4,0.1-0.6,0.1c-0.5,0.1-1.1,0.2-1.6,0.2c0,0.1,0.1,0.2,0.1,0.3
			c-0.9,0.2-1.6,0.2-2.3,0.4c-0.2,0.1-0.5,0.2-0.7,0.3c-2.6,1.5-5.5,2.2-8.5,2.9c-1.5,0.3-3.1,0.8-4.4,1.8c-1.6,1.2-3.3,2-5.1,2.9
			c-2.8,1.5-5.9,3-6.2,6.8c0,0.3-0.3,0.6-0.4,0.8c-1.6,2.2-2.2,4.7-1.7,7.4c0.1,0.3,0.1,0.6,0,0.9c-0.5,3.7,0.7,7.2,1.7,10.7
			c0.4,1.6,0.8,3.1,1,4.7c-1.4,3-2.8,6-4.1,9.1C41.3,193,35.6,221.1,35.6,250c0,28.9,5.7,57,16.8,83.4c10.6,25.1,25.8,47.7,45,67.2
			c0.5,1.8,1.1,3.5,1.8,5.2c5.7,13.9,16.2,24.3,29.6,29.2c2.4,0.9,4.8,1.5,7.2,2c1,0.5,2.1,0.9,3.2,1.3c4.5,1.7,9.2,2.6,13.9,2.9
			c4.4,2.2,8.8,4.3,13.4,6.2c26.4,11.2,54.5,16.8,83.4,16.8c28.9,0,57-5.7,83.4-16.8c25.5-10.8,48.5-26.3,68.1-45.9
			c19.7-19.7,35.1-42.6,45.9-68.1c11.2-26.4,16.8-54.5,16.8-83.4C464.4,221.1,458.7,193,447.5,166.6z M226.9,56.5
			c0.2-0.4,0.4-0.8,0.6-1c1.4-1.4,3.9-0.9,4.8-3.4c1.2-3.2,3.1-7.3,5.2-10c0.2-0.2,0.3-0.4,0.6-0.5c0.6-0.1,1,0.6,1.1,1.1
			c1.1,3.5,1.2,10.6,6.2,10.1c3.1-0.4,5.9,1,8.6-0.8c2.7-1.8,4.3-6,5.9-8.8c0.4-0.7,0.8-1.4,1.5-1.7c1.2-0.4,2.6,1.5,3,2.5
			c1,2.5,2.2,4.9,2.7,7.5c0.4,2.1,1.6,3.1,3,4.1c0.7,0.5,1.4,1,2.5,1.2c-0.9,1.9-0.8,3.9-1.9,5.5c-0.5,0.8-0.2,1.7-0.6,2.5
			c-0.2,0.5-0.5,1.2-1.2,0.8c-1.2-0.8-2.7-0.7-3.9-1.4c-2.4-1.5-5.2-1.1-7.8-1.4c-0.9-0.1-1.4-0.3-1.8-1.1c-1-2-2.1-3.9-3.5-5.6
			c-1.7-2.1-3.8-2.1-5.6-0.1c-1.3,1.5-2.7,3.1-3.7,4.9c-1.3,2.2-1.1,2.6-3.3,3c-3.8,0.6-7.7-0.6-11,2
			C228.9,62.8,225.9,59.4,226.9,56.5z M268.5,69.9c0,0.5-0.2,0.9-0.5,1.3c-1.2,1.4-4.4,1.4-5.8,1.7c-0.5,0.1-1.1,0.1-1.2-0.5
			c-0.3-2.4-5.5-7.8,0.6-5.9C263.6,67,268.5,67.5,268.5,69.9z M240,66.7c-0.2,0.7-0.3,1.3-0.5,1.8c-0.7,1.7-1.5,2.2-3.5,2
			c-1.9-0.2-3.7-0.4-5.6-0.6c-0.6-0.1-1.1-0.3-1.2-0.9c-0.2-0.6-0.3-1.2,0.6-1.1c1.8,0.1,3.5-0.6,5.3-1.1
			C236.6,66.3,238.3,66.9,240,66.7z M215.8,66.1c0.7-2.4,1.2-4.9,1.9-7.3c0.6-1.9,1.2-3.9,2.8-5.4c2.1,1.6,2.3,3.9,3.2,6
			c1.3,3.2,1.1,6.5,1.7,9.7c0.1,0.7,0.5,1.4,0.6,2c0.3,1.5,1.3,2.1,2.7,2.3c2,0.3,4.1,0.5,6.1,0.7c3.4,0.4,5.2,1.5,6.7-2.5
			c0.5-1.4,1.2-2.6,1.6-4c0.9-3,2.6-5.8,4.7-8.1c1-1.2,1.5-1.1,2.3,0.3c0.7,1.1,1.3,2.3,2,3.4c2.1,3.6,3.2,7.6,4.6,11.5
			c0.1,0.3,0.2,0.5,0.4,0.7c0.2,0.2,0.6,0.3,0.9,0.4c2.7,0.6,3.9,0.6,6.6,0c2.8-0.6,5.4,0.5,6.9-2.2c1.4-2.6,0.6-5.9,1.6-8.6
			c1-2.9,2.5-5.5,3.4-8.6c0.2-0.5,0.2-1.1,0.9-1.3c1.7,2.9,3.4,5.8,3.5,9.2c0.2,3.7,0.2,7.9-0.4,11.6c-0.6,4.4-3.1,8.3-6.5,11
			c-2.6,2-6,2.6-9.2,3c-3,0.4-6.2,0.1-9.2,0.1c-0.9,0-1.7,0-2.6,0c-7.3,0.3-14.1-1.9-21.1-2.7c-5.3-0.6-12.1-1.8-15.3-6.6
			C213.9,76.7,214.5,70.5,215.8,66.1z M109,118c1.8-3.4,3.8-6.7,5.4-10.3c0.6-1.3,1.5-2.4,2.2-3.6c2.1-3.8,4.5-7.4,6.6-11.2
			c2.6-4.5,5.9-8.5,8.9-12.8c1.2-1.7,2.6-3.2,3.6-4.9c0.2-0.3,0.3-0.6,0.5-0.8c2.2-1.5,4-3.3,5.7-5.2c1.7-1.9,3.4-3.8,5.3-5.4
			c2.2-1.9,4.5-3.6,6.7-5.4c1.2-1,2.4-2,3.4-3.1c2.5-2.6,5.5-4.4,8.3-6.5c2.3-1.7,4.9-3.1,7.3-4.8c2.8-1.9,5.9-3.2,9.1-4.5
			c0.9-0.4,1.6-1,2.4-1.5c2.6-1.6,5.3-0.9,7.9,0c2.5,0.8,4.7,2.2,6.8,3.8c1.3,0.9,2.5,1.9,3.7,2.9c0,0,0.1,0.1,0.1,0.1
			c0.6,0.5,1.2,1,1.8,1.6c2.3,2,4.6,4.2,6.3,6.8c0.5,0.8,1.1,1.7,2.2,2.1c1.3,0.5,1.4,1.4,1,2.5c-1.1,3-1.1,6.2-1.8,9.3
			c-0.8,4-1.7,10.4-0.2,14.3c1.1,2.9,5.1,5.4,7.7,6.7c8.3,3.9,16.2,4.6,25.1,5.4c7.1,0.7,14.9,1.1,22,0.2c3.7-0.5,7.5-1.7,10.4-4.1
			c1.6-1.4,3-3.2,3.7-5.1c0.6-1.8,0.2-3.9,1.1-5.5c2-3.7,8.8-6.5,12.4-8.4c0.9-0.4,1.5-1.1,2.3-1.7c2.4-1.8,5.4-2.6,8-4.1
			c3-1.8,6.4-2.8,9.3-4.6c1-0.6,2.2-0.8,3.3-1.2c3.9-1.5,7.8-3,12.1-2.6c1,0.1,1.9,0.1,2.6,0.8c1.3,1.1,3.5,1.7,4.9,2.7
			c3,2.2,6.2,3.2,8.7,6c3,3.2,6.3,6.1,9.3,9.3c3.5,3.7,6.1,9.2,8.4,13.7c1.9,3.6,3.7,7.3,4.9,11.2c0.4,1.2,1.2,2.2,1.8,3.3
			c1.1,2,1.8,4.1,2.8,6.2c0.8,1.6,1.5,3.3,2.5,4.8c2.5,3.9,3.7,8.4,5.9,12.4c2.3,4.2,3.2,8.8,4.5,13.4c0.8,2.9,1.2,5.9,1.6,8.9
			c0.7,4.2,1.3,8.4,1.9,12.6c0.7,5.5,1.2,11,1.4,16.5c0.1,4,0.3,7.9-0.3,11.8c-0.3,2-0.9,4-1.2,5.9c-0.4,2.4-1.8,3.1-3.5,3.8
			c-2.7,1.2-5.3,2.3-8.1,3c-0.2,0.1-0.5,0.1-0.7,0.2c-3.2,2.1-6.9,2.6-10.5,3.1c-1.4,0.2-1.6,0.6-1.5,2c0,2.5-0.1,4.9-0.9,7.4
			c-1,3.4-1.7,6.9-2.1,10.4c-0.5,4.2-1.9,8.1-3,12.1c-1.1,3.9-2.6,7.8-4,11.6c-1.3,3.5-2.6,6.9-4.2,10.3c-2.7,5.9-5.1,12-8.2,17.7
			c-2.1,3.9-3.8,8-5.9,11.9c-2.7,4.9-2.8,9.2-9.2,9.6c-14.2,0.9-29.4-0.4-43.4,1.6c-3.6,0.5-7.2,0.4-10.8,0.3
			c-3.5-0.1-7.1-0.2-10.6-0.1c-8.2,0.4-16.7-4-24.6-6.4c-0.6-0.2-1.2-0.4-1.8-0.5c-3.6-1-6.1-3.3-9.5-4.3c-4.2-1.2-7.7-3.5-12.1-4.2
			c-4.5-0.7-9.3-1.9-13.8-2c-2.5,0-5-0.2-7.5-0.8c-3.1-0.7-6.3-0.4-9.4-0.4c-3.9,0.1-7.7,0.1-11.6,0.4c-4.9,0.4-9.7,1.1-14.6,1
			c-5.3-0.1-10.7,0.4-15.9,0.2c-5.2-0.2-9.9-3.2-14.4-5.3c-8.3-3.8-13.8-8.8-18.8-16.2c-2.1-3.1-5.6-4.8-7.8-7.8
			c-1.1-1.5-2.4-2.9-3.4-4.5c-2.3-4.2-5.1-8.2-6.7-12.9c-0.7-1.9-1.1-4-1.9-5.8c0,0,0-0.1,0-0.1c0.2-0.3,0.3-0.6,0.2-0.9
			c0.1-0.4-0.1-0.8-0.4-1.1c0-0.4,0-0.7-0.1-1.1c-0.2-1.2-0.2-2.5-0.7-3.7c0.7-0.6,1.5-0.7,2.3-0.8c6.3-0.7,12.4-2.1,18.5-3.3
			c2.5-0.5,4.9-1.3,7.4-1.5c3.3-0.3,6.4-1.2,9.7-1.2c1.6,0,3.1-0.7,4.7-0.5c0.8,0.1,1.7-1.5,1.6-2.3c-0.2-1-1-1.6-2.2-1.6
			c-0.5,0-1,0-1.4,0.1c-3.7,1.7-7.7,1.6-11.6,2.3c-2.6,0.5-5.3,0.7-7.9,1.5c-3.7,1-7.4,1.6-11.1,2.3c-3.3,0.7-6.7,0.8-10,1.9
			c-0.6-0.8-1.6-1.4-0.7-2.8c0.3-0.5,0.1-1.4,0-2.1c-0.8-4.3-0.6-8.6-0.9-12.9c-0.1-1.7,0-1.7,1.6-1.8c5.4-0.1,10.9,0.2,16.3,0.8
			c0.2,0,0.5,0,0.7,0c2.3-0.2,4.7-0.2,7,0c3.2,0.4,6.4-0.6,9.7-0.5c4.1,0.2,8.3,0.1,12.3,1.5c1.7,0.6,3.4-0.1,4.2-1.2
			c0.6-0.8,0.5-1.5-0.4-1.9c-0.3-0.2-0.7-0.5-1-0.5c-2.4-0.1-4.6-0.8-7-1c-1.5-0.1-3-0.2-4.5-0.4c-1.7-0.2-3.5-0.7-5.3,0.1
			c-0.9,0.4-2,0.3-3.1,0.3c-5.4,0.2-10.7,0.6-16.1,0.1c-4.2-0.4-8.4-0.6-12.7-0.4c-1.6,0.1-1.9-0.2-1.8-1.7c0.2-2.1,1.4-22,3.9-20.8
			c3.6,1.7,7.4,2.7,11.1,4c4.5,1.6,8.9,3.6,13.8,4.1c2.4,0.2,4.8,1,7.2,1.5c2.4,0.5,4.8,0.9,7.3,0.7l0.1,0l-0.1,0
			c1.3,1,3,0.6,4.5,0.9c1.9,0.4,3.8,1,5.6,1.7c1.5,0.6,2.2,0.3,2.7-0.9c0.4-0.9,0.2-1.7-0.7-2.2c-1.5-0.9-3-1.6-5-1.8
			c-4.2-0.3-8.5-1.1-12.7-1.7c-0.2,0-0.4-0.1-0.6-0.1c-0.7-0.2-1.4-0.4-2.2-0.5c-0.1,0-0.2,0-0.2,0c-0.4-0.3-0.8-0.4-1.3-0.4
			c-1.8,0-3.4-0.7-5.2-0.6c-0.7,0.1-1.2-0.2-1.8-0.5c-1.2-0.5-2.4-0.9-3.6-1.2c-3.3-0.7-6.4-2.2-9.5-3.4c-2.9-1.2-6-2.1-9-3
			c-0.9-0.3-1.1-0.7-1-1.5c0.1-0.7,0.3-1.4,0.5-2.1c1.3-3.4,1.5-7.1,2.4-10.6c0.7-2.8,1.9-5.4,2.8-8c0.8-2.4,1.6-4.8,2.1-7.3
			c0.3-1.3,0.9-2.5,1.4-3.8c1.3-2.7,2-5.6,3.1-8.3c0.6-1.4,1.6-2.7,2.2-4.2C105.9,124,107.4,120.9,109,118z M378.4,288.6
			c1.3,3.8,0.4,7.5-0.3,11.2c-0.4,2.1-1.7,3.7-2.7,5.5c-2.8,5.2-7.5,11.9-12.5,15.1c-6.9,4.4-14.9,3.6-22.5,5.3
			c-8.8,2-17.3,3.8-26.4,4.4c-6.8,0.4-15,1.4-21.7-0.2c-0.2-0.1-0.5-0.1-0.7-0.1c-3.5,0.6-6.9-0.2-10.4-0.2c-5.1,0-14-2.4-16.9-6.9
			c-2-3.2-4.6-5.8-7.2-8.5c-1.1-1.1-1.9-2.5-2.9-3.7c-0.6-0.7-1-1.6-2-1.8l-0.1,0l0.1-0.1c-1.6-2.1-4-3.3-6.1-4.8
			c-1.6-1.1-3-2.8-5.2-3c-0.8-0.1-0.6-1.3-1-2c0.3-0.4,0.6-0.4,0.9-0.3c2.7,1.2,5.5,1.9,8.2,2.9c4,1.5,8.1,2.7,12.4,2.8
			c18.1,0.4,36.2,0,54.2-1.2c15.7-1.1,30.8-2.6,45.1-9.6c3.9-1.9,6.3-4.6,9.6-6.9c1-0.7,2.3-1.2,3.7-1.3c2-0.2,3.8,0.4,4.3,2.4
			C378.4,288.1,378.3,288.3,378.4,288.6z M347,295.5c-3,0.9-8.3,3.3-8.8-1c-0.3-2.6,4.4-9.1,5.5-11.6c1.5-3.3,3.5-6.5,5.1-9.8
			c1.2-2.4,2.2-4.9,3.2-7.4c0.4-1,0.9-1.8,1.4-2.7c1.9-3.6,2.9-7.5,4.6-11.1c1-2.2,1.6-4.6,2.5-6.8c1.4-3.4,2.1-7.1,3.5-10.5
			c1-2.4,1.1-4.9,1.5-7.4c0.5-3.5,1.4-6.8,2.1-10.2c0.5-2.2,0.8-4.3,1.1-6.5c0.2-1.3,0.8-2.1,2-2.3c5.1-0.7,9.7-3.2,14.5-4.8
			c7.8-2.7,15-6.7,22.3-10.6c3.5-1.8,6.8-3.9,9.8-6.4c1.9-1.6,4-2.9,5.9-4.3c0.6,0.3,0.4,0.8,0.3,1.2c-1,5.8-1.9,11.7-3.2,17.4
			c-0.8,3.3-2,6.5-3.1,9.7c-1.2,3.4-2.7,6.7-4.8,9.6c-0.7,1-0.8,2.5-1.4,3.7c-2.5,5.1-5,10.2-8,15c-4.2,6.5-8.2,13.3-13.6,19
			c-0.8,0.8-1.3,1.8-1.9,2.7c-0.2,0.3-0.4,0.8-0.7,1c-1.8,1.2-2.7,3-3.9,4.6C372.9,278.9,363.2,290.8,347,295.5z M422.8,176.2
			c-1,1.5-2.1,2.9-3.5,4.1c-7.1,5.8-14.9,10.7-23.3,14.4c-0.3,0.1-0.5,0.4-0.8,0.5c-0.2,0.1-0.4,0.3-0.9,0c0.1-1.7,0.3-3.4,0.5-5.2
			c0.2-1.6,0.1-3.3,0.1-4.9c0.2-4.6-0.2-9.1-0.4-13.6c-0.1-3-0.4-6-1-8.9c-0.5-3-0.5-6-1.1-8.9c-0.4-1.8-0.8-3.6-1.1-5.5
			c-0.1-0.5-0.3-1.1-0.4-1.6c-0.2-1,0.4-1.3,1.2-1.3c0.5,0,0.9,0.1,1.4,0.2c3.9,0.7,7.4,2.6,11.2,3.5c2.1,0.5,4,1.3,5.9,2.1
			c1.4,0.6,2.7,1.5,3.6,2.7c2,2.6,4.8,4.3,7.1,6.6c1.5,1.5,2.6,3.2,2.9,5.3c0.2,1.5,0.8,3,0.7,4.6
			C424.8,172.5,423.9,174.5,422.8,176.2z M186.3,289c0,0.2,0,0.3-0.2,0.3c-4.4,2.3-7.4,6.2-10.5,9.9c-1.7,2.1-2.7,4.7-3.4,7.3
			c-0.1,0.3-0.2,0.6-0.3,0.8c0,0,0,0,0,0.1c-0.9,2.6-1.1,5.5-0.5,8.3c0.1,0.4,0.2,0.7,0.3,1.1c-3.2,1.2-5.6,3.6-7.5,6.5
			c-1.4-0.3-2.7-0.6-4.1-0.8c4-1.7,6.8-5.4,8.8-9.2c1.3-2.4,2.5-4.9,3-7.5c0.6-2.8,0-5.9,1.2-8.6c0.3-0.6,0-1.2-0.4-1.5
			c0-0.2-0.1-0.5-0.1-0.7c-0.2-1.7-0.5-3.4-0.4-5.2c0.1-1.3-0.9-2.3-1.1-3.6c6.1-0.7,12.2-0.5,18.5-0.8c-0.6,1.1-1.4,1.4-2.1,1.9
			C186.9,287.6,186,287.9,186.3,289z M172.6,326.2c-1.1-0.5-2.1-0.9-3.2-1.3c-0.6-0.2-1.1-0.4-1.7-0.6c1.4-1.7,3.2-3.2,5.2-4.2
			c1.1,2.4,2.4,4.8,3.7,7.1C175.2,326.8,173.9,326.5,172.6,326.2z M166.6,312.8c0.4-0.8,0.8-1.6,1.2-2.4
			C167.5,311.3,167.1,312.1,166.6,312.8z M115.9,274.5c4.9,4.7,10,6.8,16,9.7c-2.1,1.7-4.3,3-6.9,3.6c-0.6,0.1-1.1,0.3-1.4,0.8
			c-1.1,1.5-2.4,2.7-3.5,4.1c-5.7,7.7-12.9,0.5-17.1-4.6c-2.9-3.5-5.4-8.4-4.7-13.2c0.2-1.3,2.4-14.8,5-12.8
			C107.9,265.8,111.7,270.4,115.9,274.5z M115.5,273.8c0-0.1,0-0.2,0.1-0.2c0.2,0,0.3,0.1,0.1,0.2
			C115.7,273.9,115.6,273.8,115.5,273.8z M57.2,139c0.2-2.2,1.2-3.9,2.1-5.7c1.1-2.4,3-3.9,5.5-4.9c1.4-0.5,2.7-1.3,3.9-2.2
			c0.7-0.5,1.5-0.9,2.4-1.1c2.1-0.4,4.1-1.2,6.1-1.9c0.4-0.1,0.8-0.3,1.1-0.4c0.2-0.1,0.5,0,0.7-0.2c1.4-1.1,3-1.6,4.7-1.9
			c2.2-0.4,4.5-0.5,6.7-1c2.7-0.7,5.4-0.9,8-1.9c0.5-0.2,0.9-0.1,1.4-0.1c0.5,0,1.1,0.1,1.4-0.2c1.6-1.7,4-1.3,6-2.7
			c-0.1,2-1.3,3.1-2.1,4.3c-1.3,2-2,4.1-3,6.2c-0.4,0.8-0.6,1.6-1.1,2.4c-1.7,2.8-2.7,5.8-3.7,8.9c-0.5,1.7-1.5,3.3-2.1,5
			c-1.3,3.6-1.6,7.4-3.3,10.8c-1.4,3-2.2,6.1-2.9,9.2c-0.5,2.6-1.1,5.2-1.9,7.8c-0.5,1.7-0.7,1.8-2.5,1.6c-0.9-0.1-1.9-0.4-2.8-0.5
			c-1.2-0.1-2.1,0.5-2.2,1.3c-0.1,1,0.6,1.6,1.9,1.9c1.2,0.2,2.5,0.5,3.7,0.8c1.1,0.3,1.2,0.8,0.9,1.8c-0.6,2-0.9,4.2-1.5,6.2
			c-0.6,2.5-0.4,5-0.7,7.5c-0.2,2-0.1,4.1-0.1,6.1c-0.1,2.2-0.1,2.3-2.3,2c-1.4-0.2-2.7,0.2-3.9,0.7c-0.5,0.2-1,0.5-1,1.2
			c0.1,0.8,0.6,1,1.4,1c1.4,0,2.8,0.1,4.2,0.4c1.1,0.2,1.6,0.7,1.4,1.7c-0.5,2.7,0.9,5.5-0.1,8.2c1.1,2.4,0.6,5.1,0.9,7.6
			c0.1,1.1,0.1,2-1.3,2.4c-0.7,0.2-1.2,0.9-1,1.7c0.1,0.9,0.7,1.5,1.6,1.4c1.5-0.2,1.7,0.7,1.9,1.8c0.3,1.8,0.6,3.6,0.9,5.3
			c0.3,1.6,0.2,3.3,1.2,4.8c0.5,0.7,0.2,1.6,0.4,2.3c-0.1,0-0.1,0-0.2,0c-0.2,0-0.3,0-0.4,0.1c-0.4-0.3-0.7-0.9-1-1.3
			c-1.8-2.3-3-5-4.6-7.4c-2.2-3.1-3.5-6.6-5-10.1c-1.4-3.3-2.6-6.7-3.7-10.2c-1.1-3.7-1.9-7.4-3.4-11c-0.9-2.1-1.5-4.3-2.4-6.4
			c-0.6-1.6-0.8-3.5-1.1-5.3c-1-5.2-2.9-10.1-4.2-15.2c-0.8-3-1.2-6.1-1.6-9.2c-0.2-1.3-0.3-2.6-0.4-3.9c0-0.6-0.1-1.2-0.1-1.8
			c0-1.5-0.4-3-1-4.4c-0.1-0.3-0.2-0.5-0.4-0.8c-0.1-0.3-0.4-0.6-0.4-0.8C58,147,56.8,143.1,57.2,139z M39.3,250
			c0-28.4,5.6-56,16.6-82c0.5-1.2,1-2.3,1.5-3.4c0.4,1.7,0.7,3.5,0.9,5.2c0.9,4.4,2.2,8.8,3.8,13c0.6,1.6,0.7,3.2,1,4.8
			c1.1,5.6,3.2,10.8,5,16.2c1,3,2,6.1,2.8,9.2c0.9,3.2,2.3,6.2,3.5,9.3c1.6,4.1,3.8,7.9,6,11.7c2.2,3.8,4.6,7.5,6.6,11.4
			c0.5,0.9,1.1,1.7,1.9,2.4c0.7,0.6,1.3,1.3,1.7,2.2c0.7,1.7,2.4,2.5,3.5,3.8c1.2,1.5,2.7,2.9,4.2,4.2c0.6,0.5,0.7,0.8,0.5,1.6
			c-0.2,1.1-0.2,2.3-0.4,3.5l0.2,0l-0.1,0c-1.2,2.2-2.1,4.4-2.8,6.8c-0.7,2.3-0.8,4.6-1.2,6.8c-0.9,5.1,3.3,12.7,7.3,15.7
			c1.7,1.3,3,2.9,4.7,4.2c0.7,0.6,1.8,0.7,2.8,0.8c0.9,0.1,0.3,0.6,0.1,0.9l0.2-0.1l-0.1,0.1c-2.4,1.1-4.8,2.1-7.1,3.2
			c-0.8,0.4-1.3,1.4-2,2c-4.5,3.5-7.6,8.3-11.1,12.6c-0.3,0.2-0.5,0.5-0.6,0.8c-1.5,1.9-3.1,3.8-3.4,6.4c0,0,0,0,0,0
			c-1.2,0.6-1.4,1.8-1.6,2.9c-0.1,0.3-0.1,0.7-0.2,1c-1.6,2.6-3.3,5.1-4.9,7.6c-0.5,0.3-0.9,0.7-1.4,1.2c-1.8,2-2.7,4.4-3.9,6.7
			c-0.5,0.9-0.9,1.7-1.4,2.6c-0.2,0.3-0.4,0.5-0.5,0.8c-0.2,0.1-0.4,0.2-0.5,0.5c-0.1,0.3-0.3,0.7-0.5,1c-1.2,1.9-2.5,3.8-3.7,5.7
			c-3.9-6.9-7.4-14-10.5-21.4C44.9,306,39.3,278.4,39.3,250z M95.8,393.5c-10.8-11.6-20.3-24.3-28.2-38c1-1.2,1.9-2.5,2.7-3.8
			c1.4-0.9,2.2-2.2,2.8-3.8c0.2-0.6,0.4-1.2,0.5-1.7c2.1-3.3,4.3-6.6,6.4-9.9c2.4-2.3,4.6-4.6,5.5-8c0.1-0.3,0.2-0.6,0.3-0.9
			c0.3-0.5,0.7-1,1-1.5c2.7-4.3,5.2-8.8,8.2-13c0.4-0.5,0.9-1.1,1.3-1.6c1-1.2,2-2.3,3.1-3.4c3.8-3.8,8.7-4.9,13.5-6.9
			c1.8-0.7,3.2-1.5,4.8-2.5c0.6-0.4,5.1-5,4.9-5c0,0-0.1,0-0.1,0c0,0,0,0,0,0c2.6-2.2,5.7-3.7,8.8-5.1c2.6-1.2,5.6-1.2,8.2-2.3
			c0.3-0.1,0.9,0.1,1.4,0.3c2.2,0.9,4.4,1,6.7,0.9c0.1,0,0.2,0,0.3,0c1.8,0,3.7,0,5.5-0.2c1.4,0,2.8,0,4.2,0.2
			c2.6,0.2,5.2-0.4,7.8-0.6c1.9-0.2,2.5,0.3,3.4,2.1c1.3,2.8,0.8,5.7,0.4,8.4c-0.1,0.4,0,0.8,0,1.2c-0.6,0.9-0.4,2-0.2,3.2
			c0.2,1,0.5,1.7,0,2.7c-0.2,0.5-0.6,0.9-0.8,1.4c-0.7,1.2-1.4,2.4-2,3.6c-1.2,2.2-2.2,4.6-3.3,6.9c-1.2,2.4-2.6,4.2-5.1,4.9
			c-0.3,0.1-0.5,0.1-0.8,0.2c-0.5,0.1-0.8,0.4-0.8,0.8c-23.8-1.7-47.6,14-57,39.6C95.1,372,94,383.1,95.8,393.5z M132.6,434.4
			c-0.1-0.1-0.2-0.2-0.3-0.3c0.4,0.1,0.8,0.3,1.2,0.4C133.2,434.6,132.9,434.6,132.6,434.4z M130.2,431.6c-2.8-1-5.5-2.3-8.1-3.9
			c-7.9-4.8-14.3-12-18.4-20.9c-0.4-0.8-0.7-1.5-1-2.3c-0.8-1.9-1.4-3.8-2-5.7c-3.2-11.5-2.7-24,1.6-35.8
			c8.4-22.8,28.9-37.2,50-37.2c1.1,0,2.2,0,3.4,0.1c2.2,0.2,4.4,0.5,6.6,1c-0.6,1.3-1,2.6-1.4,4c-0.9,2.9-1.1,6.2,1.2,8.6
			c2,2,4.4,1.8,6.5,0.5c0,0.3,0,0.6,0,0.9c-0.2,0.5-0.4,1-0.8,1.5c-0.7,0.9,0.2,2.1,1,1.9c0.5,0.1,1.1-0.1,1.4-0.7
			c0.3-0.8,0.5-1.6,0.6-2.3c0.9-2.9,0.2-6.2-2.2-8.4c-0.5-0.4-1-0.4-1.4-0.1c-0.8,0.1-1.4,1.1-0.7,1.9c0.5,0.6,1,1.2,1.3,1.9
			c-0.1,0.1-0.3,0.2-0.4,0.4c-0.3,0.4-0.8,0.5-1.2,0.5c-0.4-0.1-0.9,0.1-1.2,0.4c-3.1-1-0.9-7.4,0.4-10.1c0.8,0.3,1.7,0.5,2.5,0.8
			c1.1,0.4,2.3,0.9,3.4,1.4c10.8,5,19.3,14,24.1,25.8c5.3,13,5.4,27.8,0.3,41.6c-5.1,13.8-14.7,25-27.1,31.5
			c-6.7,3.5-13.8,5.4-20.8,5.7c-2.7,0.1-5.4,0-8.1-0.4c-0.9-0.1-1.7-0.3-2.6-0.4C134.9,433.1,132.5,432.4,130.2,431.6z M139.1,436.7
			c-0.5,0.4-0.9,0.2-1.2,0c0.3-0.1,0.6-0.3,0.9-0.4c0.1,0,0.2,0,0.2,0.1C139.1,436.5,139.1,436.6,139.1,436.7z M153,437.6
			c0.3,0,0.5-0.1,0.8-0.1c5.7-0.9,11.3-2.7,16.7-5.6c13.3-6.9,23.5-18.8,28.9-33.5h0c5.4-14.7,5.2-30.4-0.4-44.3
			c-2.9-7.2-7.2-13.5-12.4-18.5c8.6,5.2,15.3,13.3,19.4,23.2c5.3,13,5.4,27.8,0.3,41.6c-5.1,13.8-14.7,25-27.1,31.5
			c-8,4.2-16.6,6.1-25,5.7C153.8,437.6,153.4,437.6,153,437.6z M161.4,441.2c6.6-0.7,13.2-2.6,19.5-5.9
			c13.3-6.9,23.5-18.8,28.9-33.5h0c5.4-14.7,5.2-30.4-0.4-44.3c-1.9-4.7-4.3-8.9-7.3-12.7c1,0.8,1.9,1.6,2.6,2.7
			c0.5,0.8,1.2,1.3,2,1.5l-0.1-0.2l0.1,0.1c0.4,1.1,1.4,1.7,2.2,2.4c2.5,2.3,4.1,5.4,6,8.1c0.3,0.4,0.6,0.8,0.6,1.3
			c0.3,2.8,2,5,3.4,7.3c0.7,1.1,1.6,2.2,1.4,3.7c0,0.2-0.1,0.6,0.1,0.7c1.7,1.8,1.5,4.3,2.3,6.4c0.2,0.6,0.6,1.1,1,1.6
			c2.3,2.8,3.9,6,5.7,9.2c0.5,0.9,1.1,1.6,1.7,2.2c0.9,1,1.3,2.1,1.5,3.4c0.2,1.7,0.7,3.4,1.3,5c0.9,2.3,1.9,4.6,1.8,7.2
			c-0.1,2.1,0.9,4.2,0.7,6.3c-0.1,1.6-0.2,3.3-0.1,4.9c0,1,0.2,2.1,0.7,3c1.7,3.1,1.8,6.5,2.2,9.9c0.3,2.7,0.2,5.3-0.3,8
			c-0.3,1.6-0.2,3.5,0.1,5.1c0.7,3.4,0.3,6.8-0.2,10.1c0,0.1,0.1,0.3,0.1,0.4c0.2,1.8,0.2,3.6,0.2,5.4c-24.6-1.2-48.5-6.7-71.1-16.3
			C165.8,443.2,163.6,442.2,161.4,441.2z M240.7,460.4c0.2-0.7,0.5-1.3,0.8-1.9c0.3-1,0.7-1.9,1.1-2.9c0.1-1.9,0-3.7,0.3-5.6
			c0.4-1.9-0.2-3.9-0.4-5.9c-0.2-1.8-0.2-3.6,0-5.4c0.5-4.4-0.3-8.8-0.8-13.2c-0.3-2-0.7-3.8-1.7-5.6c-0.8-1.6-0.8-3.3-0.5-5.1
			c0.4-2.4,0.4-4.7-0.6-7c-0.3-0.7-0.3-1.5-0.5-2.3c-0.9-4.7-2.2-9.4-3.6-14.1c-0.3-1-1.1-1.8-1.8-2.4c-0.9-0.8-1.5-1.6-1.9-2.7
			c-1.2-3.1-3.7-5.3-5.3-8.1c-0.9-1.5-1.4-3-1.5-4.6c-0.1-1-0.1-2.1-0.6-2.9c-1.4-2.5-2.2-5.4-4.1-7.6c-0.6-0.7-1.1-1.4-1.1-2.5
			c0-1-0.5-2-0.8-2.9c-0.1-0.2-0.1-0.3-0.2-0.5c0.1-0.2,0.1-0.4,0-0.6c-0.1-0.5-0.5-1-0.9-1.2c-0.2-0.2-0.4-0.4-0.6-0.7
			c0.2-0.6-0.1-1.2-0.6-1.7c-0.6-0.7-4.7-4.3-5.8-4.7c-0.9-0.3-0.2-1.3-0.8-1.5c-1.9-0.8-2.7-2.6-3.8-4c-0.8-1-2.2-1-2.9-2.2
			c-0.6-1.1-1.8-1.8-3-2.3c-0.2,0-0.4,0-0.5,0c0,0,0.1-0.1,0.1-0.1c0.1,0,0.3,0.1,0.4,0.1c-0.3-0.4-0.5-0.8-0.9-1.1
			c-1-0.9-2.8-0.6-3.2-2.2c-1.3-0.1-2.3-1-3.5-1.2c-0.5-0.1-1-0.2-1.4-0.3c-1-0.7-2.1-1.4-3.2-2c0,0,0,0,0,0
			c-0.5-0.5-1.2-0.8-1.7-1.2c-1.6-1.2-3.5-2-4.1-4.4c-0.3-1.2-1.6-2.2-2.5-3.3l-0.1-0.1l0.1,0.1c-1.9-1.9-2.2-4.7-3.3-7
			c-0.7-2.7-0.8-5.4-0.2-8.2c0.1-0.4,0.3-0.9,0.4-1.3c0.1-0.3,0.2-0.6,0.3-0.9c0.9-2.3,2.2-4.3,3.8-6.2c0.5-0.3,0.9-0.7,1.1-1.2
			c0.5-0.5,0.9-1,1.4-1.5c0.6-0.4,1.1-0.9,1.5-1.4c2.5-2.3,5.2-4.4,7.8-6.4c0.6-0.2,1.1-0.5,1.6-0.8c1.3-0.8,2.7-1.2,4.3-1.1
			c2.5,0.1,4.8,0.4,7.2,1c5.2,1.3,10.4,2.3,15.6,3.7c2.7,0.7,5.4,1.5,7.9,2.9c1.9,1.1,4,1.8,6,2.7c1.1,0.5,2,1,2.5,2.2
			c0.8,1.7,1.4,3.7,3.3,4.4c1.7,0.6,2.7,2,4.1,2.9c1.4,0.9,2.8,1.8,4.1,2.8c2.2,1.6,3.6,3.9,5.6,5.7c2.6,2.5,4.7,5.5,6.9,8.4
			c1.7,2.2,3.1,4.6,4.5,7c0.7,1.2,1.6,2.1,2.3,3.3c0.6,1.1,1.5,2,2.1,3.1c0.4,0.9,1.2,1.8,2.3,2.4c1.7,0.8,2.8,2.4,3.7,3.9
			c2.3,3.8,4,7.8,5.7,11.9c1.5,3.6,2.1,7.4,2.5,11.2c0.3,3.4,1.7,6.4,3.5,9.2c0.5,0.8,0.9,1.7,1.1,2.6c0.3,1.2,1,2.3,1.3,3.5
			c1.4,4.5,4.3,8.2,6.3,12.4c1.7,3.6,2.6,7.4,2.7,11.4c0.2,5.5,0.1,11,0.1,16.5c0,1.7,0.2,3.6,1,5.2c1,1.9,0.8,4,1,6
			c0.1,1.2,0.2,2.3,0.3,3.5c0.2,1.3,0.3,2.7,0.2,4c-0.2,2.5-0.6,5-0.4,7.5c0.1,1-0.3,1.8-0.7,2.7c-0.4,0.9-1.1,1.7-1.2,2.8
			c-0.1,0.7-0.2,1.3-0.5,1.8c-15.7,3.7-31.9,5.6-48.4,5.6C246.9,460.6,243.8,460.6,240.7,460.4z M332,444.1
			c-9.7,4.1-19.7,7.5-29.9,10.1c0.1-0.6,0.6-1,0.9-1.4c0.2-0.6,0.5-1.2,0.7-1.7c0.3-1.2,0.6-2.4,0.3-3.7c-0.4-1.8-0.1-3.7,0.3-5.6
			c0.6-3.4-0.1-6.8-0.5-10.1c-0.5-4.2-1.8-8.2-1.9-12.4c-0.1-4-0.2-8-0.2-12.1c-0.1-4.4-0.5-8.7-2.2-12.9c-1.2-2.9-2.5-5.6-4.4-8.1
			c-0.8-1-1.1-2.4-1.7-3.6c-2-4.1-3-8.6-5.4-12.5c-0.9-1.5-1.1-3.4-1.4-5.2c-0.4-2.2-1.1-4.3-1.4-6.5c-0.2-2-0.9-3.8-1.5-5.6
			c-0.5-1.6-1.2-2.9-2.2-4.1l0,0.1l0-0.1c0-0.1,0-0.2,0-0.2c-1.7-3.2-2.8-6.6-5-9.5c-1-1.3-2.3-2.6-4-3c0,0,0,0,0,0
			c-0.4-1.8-1.7-3.1-2.4-4.8c3,0.2,5.7,1.4,8.4,1.6c3.7,0.2,7.4,1.3,11.1,0.4c0.9-0.2,1.7,0.4,2.6,0.4c3.8,0,7.6,0.4,11.4,0.3
			c3.9-0.1,7.7-0.5,11.6-0.8c0.8-0.1,1.5-0.2,2.3-0.2c2.4,0,4.6-0.6,7-1c4.5-0.9,9.1-1.3,13.6-1.8c2.5-0.3,4.8-0.9,7.1-1.6
			c2.4-0.7,4.8-1.5,7.3-1.6c1.7-0.1,3.3-0.4,4.8-1.2c0.9-0.5,1.8-0.6,2.4,0.6c0.3,0.6,0.9,0.8,1.6,0.9c1,0.1,2,0.5,2.8,1.3
			c2.4,2.5,5.4,4.4,7.5,7.2c0.8,1.1,1.5,2.4,2.4,3.5c3.3,4,5.7,8.7,8.4,13.1c1.4,2.3,2.5,4.9,3.5,7.5c0.5,1.1,1.2,2.1,1.7,3.1
			c1.5,2.9,2.3,6,3.4,9.1c2.1,6,3.1,12.4,3.9,18.7c0.1,0.7,1,6.8,2.6,10C378.5,419,356.5,433.7,332,444.1z M444.1,332
			c-10.2,24.2-24.7,46-43.1,64.8c-0.6-2.1-1.5-4.5-1.7-5.6c-1-4.7-1.8-9.5-2.8-14.3c-0.7-3.2-2.2-6.2-3-9.4
			c-0.6-2.5-1.8-4.8-2.6-7.3c-0.2-0.7-0.5-1.4-1-1.9c-1.4-1.8-2.3-3.7-3.2-5.8c-1.4-3.4-3.5-6.3-5.5-9.4c-0.8-1.3-1.7-2.4-2.5-3.7
			c-1.2-2-3-3.6-4.4-5.5c-1.4-1.9-3-3.7-4.9-5.4c-2-1.7-3.9-3.5-6.3-4.6c-0.3-0.1-0.6-0.2-0.7-0.8c0.8-0.4,1.8,0.2,2.6-0.4
			c1-0.7,2.1-1.3,3-2.3c3.7-4.1,7.5-8.1,10-13.1c1.1-2.2,3-4.2,3.3-6.7c0.7-5.2,1.6-9.3-0.9-14c-1.3-2.5-4.4-7.6-7.2-3.5
			c0.1-1,0.5-1.9,1.3-2.5c3.2-2.8,5.9-6.1,8.5-9.5c3.6-4.8,7.6-9.2,11.4-13.9c2.5-3.1,4.6-6.6,7.3-9.6c0.1-0.1,0.2-0.2,0.3-0.4
			c1.3-3.8,4.3-6.6,6.2-10c0.5-1,1-2,1.4-3c0.6-1.5,1.6-2.9,2.3-4.3c1-2,2.4-3.9,3.1-6.1c0.9-2.6,2.1-4.9,3.5-7.2
			c1.4-2.2,2.3-4.8,3.2-7.3c0.3-1,0.8-2.1,1.1-3.1c1.5-4.2,2.2-8.5,2.9-12.9c0.4-2.3,1.2-4.5,1.4-6.9c0.3-4.1,1.5-8.1,1.7-12.2
			c0.1-1.3,0.6-2.6,0.9-3.9c0.6-2.7,0.1-5.3-1.2-7.6c-1.5-2.5-3.3-4.8-5.5-6.7c-2.6-2.2-5-4.7-7.7-6.9c-1.7-1.4-3.7-2.6-5.8-3.1
			c-3.2-0.6-6-2.2-9.1-3.2c-2.6-0.9-5.1-1.7-7.8-1.5c-2.3,0.2-2.5-0.1-2.6-2.5c-0.1-2.6-1.5-4.6-2.6-6.7c-1.2-2.3-1.9-4.8-2.7-7.2
			c-2.5-6.8-5.7-13.5-8.9-19.9c-0.8-1.7-1.7-3.3-2.5-5c-4.7-9.5-9.3-18.8-15.8-27.2c-2.3-2.9-4.7-5.7-7.2-8.3
			C368,74.2,384.4,86.5,399,101c19.3,19.3,34.5,41.9,45.1,67c11,26,16.6,53.6,16.6,82C460.6,278.4,455.1,306,444.1,332z"/>
		<path d="M201.4,187.9c-0.8-0.6-1.8-1.2-2.8-1.3c-1.9-0.2-3.6-1.1-5.5-1.3c-3.3-0.4-6.5-1-9.8-0.9c-2.3,0.1-4.7,0.4-7,0.5
			c-4.2,0.2-8,1.7-11.7,3.5c-0.8,0.4-1.1,1-1,1.9c0.2,1.6,0.3,3.1,0.4,4.7c0.1,2,0.9,3.6,1.8,5.4c1.9,3.7,4.9,6.7,7.2,10.2
			c0.7,1,1.4,2,2.4,2.9c1.6,1.5,2.2,3.4,1.3,5.6c-2.1,5.4-2.4,11.3-5.7,15.7c-1,1.4-2.4,2.7-4.2,3.7c-2.1,1.3-4.1,2.7-6.6,3.1
			c-2.1,0.4-4.2,1.4-6.4,0.4c-1.1-0.5-2.2-0.7-3.5-0.7c-0.9,0-1.9-0.3-2.8-0.6c-1.1-0.4-2.2-1.1-3.4-1.1c-2,0-3.1-1.4-4.4-2.5
			c-0.8-0.7-1.8-1.4-2.3-2.5c-0.8-2-0.8-2-2.9-1.7c-0.5,0.1-1.1,0.1-1.6,0.4c-0.3,0.8,0.9,1,0.6,1.7c-0.4,1.1,0.2,1.7,1.1,2
			c0.6,0.3,0.9,0.8,1.4,1.3c2.2,2.2,4.5,4.2,7.8,4.7c0.5,0.1,0.9,0.2,1.3,0.4c1.5,0.8,3,1,4.7,1.2c0.8,0.1,1.5-0.1,2.3,0.2
			c2.3,0.8,4.6,1.1,7.1,0.3c2.7-0.8,5.6-1,7.9-3.1c2-1.8,4.7-2.8,5.9-5.5c0.4-0.8,1-0.6,1.5,0c0.3,0.3,0.4,0.7,0.4,1.1
			c0.4,3.4,2.4,5.8,4.8,8c0.7,0.7,1.7,1.2,2.5,1.7c5,3.1,10.3,5.2,16.2,5c1.3,0,2.6-0.4,4-0.1c2,0.3,3.9-0.2,5.7-1.2
			c1.1-0.6,2.1-1.1,3.3-1.2c2-0.1,3.2-1.6,4.7-2.5c0.7-0.4,1-1.4,1.3-2.2c0.3-0.9-0.1-1.4-0.9-1.7c-1.3-0.6-2.4,0-3.1,1
			c-1.8,2.4-4.6,2.8-7.1,3.5c-1.8,0.5-3.9,0.5-5.8,0.8c-4.4,0.6-8.2-0.4-12-2.2c-1.8-0.8-3.5-2.1-5.4-2.8l-0.1,0c0,0,0.1,0,0.1,0
			c-8.7-5.7-5.9-15.7-3.9-24c0.3-1.1,0.6-2.6,2-3c2.9-0.9,5.5-2.2,8.3-3.4c3.1-1.3,6-2.9,9-4.2c2-0.9,3.9-2.1,5.9-2.9
			c1.2-0.5,2.6-1.3,3.3-2.4c1.4-2.2,2.6-4.5,2.9-7.2c0.2-2.2-0.6-3.8-2.6-4.7c-0.2-0.1-0.3-0.1-0.5-0.2c-0.1,0-0.1-0.1-0.2-0.1
			c-0.2-0.1-0.3-0.2-0.4-0.4c-0.7-1.3-2-1.7-3.3-2C202.9,188.8,202.1,188.4,201.4,187.9z M206.9,196.8c0.1,0.5,0.3,1,0.1,1.4
			c-1,1.9-1.7,3.8-3.9,4.9c-5.1,2.6-10.3,5.1-15.5,7.6c-1.6,0.8-3.3,1.1-4.8,1.9c-2.2,1.1-4.4,0.1-5.7-2c-0.9-1.4-1.9-2.9-2.9-4.3
			c-0.4-0.5-1-0.9-1.5-1.4c0.2-0.5-0.2-0.9-0.5-1.2c-1.6-2-2.7-4.2-4.1-6.3c-1-1.5-1-3.2-1-4.8c0-1.2,0.9-2.1,2-2.7
			c2.4-1.3,5-1.4,7.5-1.9c2.7-0.5,5.5-0.7,8.2-0.4c6.7,0.8,13.5,1.6,19,6.2C205,194.7,206.6,195,206.9,196.8z"/>
		<path d="M127,170.1c9.8,8.3,24.9,8.3,36.2,3.5c3.2-1.4,6.1-3.5,8.8-5.8c0.7-0.6,1.4-1.3,1.9-2.1c1.9-3.4,3.8-6.1,4.4-10.1
			c0.6-4,0.5-8.1-0.3-12.1c-1.8-8.8-11.6-16.1-18.8-20.2c-3-1.7-6.4-2.4-10-2.5c-4.8-0.1-9.8,1.1-13.9,2.9
			c-3.8,1.7-9.2,4.7-11.7,8.2c-1.8,2.5-3.5,5.2-4.6,8c-2.2,5.1-3,11-1.7,16.6C118.6,162.6,122.4,166.1,127,170.1z M123.2,138.6
			c3.4-6.8,10.1-12.1,17.8-13.7c3.4-0.7,6.8-1.1,10.3-0.5c7.6,1.3,16.1,6.7,20.1,13.4c2.4,4,4,8.5,3.9,13.2
			c-0.1,11.1-9.7,20.7-20.3,22.3c-1.6,0.3-3.2,0.4-4.9,0.3c-4.3,0-8.8-0.9-12.7-2.2c-6.4-2.1-14.3-7.8-17.1-14.1
			c-1-2.2-0.4-3.5-0.7-5.8C119.1,146.8,121.2,142.7,123.2,138.6z"/>
		<path d="M256.7,196.7c2.2,0,4.2-0.1,6.1-0.4c9.7-1.5,19.7-6.7,22.9-16.4c1.4-4.3,2.4-9.2,1.7-13.8c-0.9-6-2-11.6-6.8-15.7
			c-2.4-2-4.7-4-7.6-5.1c-1.5-0.6-2.6-1.9-4.3-2.4c-7-1.7-12.6-3-19.7-0.5c-6,2.1-10.9,6.5-14.5,11.6c-7.7,10.7-7.8,25.2,0.9,35.1
			C240.2,194.5,249,196.6,256.7,196.7z M232.9,176.2c-0.4-2.7-0.3-5.7-0.1-7.7c0.4-4.6,1.9-9,4.5-12.8c7.9-11.6,24.2-14.5,36-7.2
			c2.1,1.3,4.1,3.4,5.8,5.2c7.9,8.4,5.1,21.4-0.8,30.2c-2.5,3.7-6,6-10.4,7.3c-4.8,1.4-9.8,1.9-14.7,1.3c-4.8-0.6-9.5-1.8-13.5-4.9
			c-2.5-1.9-3.8-4.6-5.4-7.1C233.5,179.6,233.1,178,232.9,176.2z"/>
		<path d="M309.5,96.1c3.1,2.5,6.4,4.8,9.7,7.1c2,1.4,4.1,2.6,6.2,3.9c1.8,1.1,3.6,2.4,5.6,3.3c5.2,2.2,10.9,4.8,16.8,5.3
			c6.2,0.4,8.6-2.6,8.4-8.7c-0.2-8.3-5.9-15.3-8.8-22.7c-1.5-3.8-2.5-7.8-4.8-11.1c-2.9-4.3-10.1-7.6-15-4.9
			c-0.6,0.3-1.1,0.8-1.9,0.9c-4.4,0.7-8.1,3.1-11.5,5.9c-3.7,3-7.2,6.6-8.5,11.4c-0.1,0.3-0.1,0.5-0.2,0.8c-0.2,1.1-0.3,2.3-0.1,3.4
			C305.8,92.5,307.9,94.9,309.5,96.1z M311.1,82.3c3.6-4.7,9.9-8.5,15.2-10.8c2-0.9,4.1-1.7,6.2-1.6c2.5,0.2,4.8,1.8,6.3,3.8
			c4.2,5.5,5.9,12.6,9.2,18.6c0.9,1.7,3.1,6.7,4.1,11.2c0.8,3.8,0.8,7.3-1.5,8c-9.9,3.1-20.8-5.6-28.9-9.9c-2.6-1.4-5.5-3.1-7.3-5.5
			c-1.5-1.9-3.4-3.6-4.8-5.5C307.9,88.4,308.1,83.5,311.1,82.3z"/>
		<path d="M153.9,87c1.7,0.5,3.4,0.8,4.8,0.6c3.5,0.1,6.5-0.3,9.5-1c2.4-0.6,4.7-1.1,7.2-1.4c5.3-0.5,10.6-1.7,15.7-3.1
			c3.6-1,11.3-1.6,13.4-5.1c1.9-3.2-1.3-7.8-2.1-10.8c-1.1-4.4-3.6-8.1-6.4-11.5c-2.7-3.4-8.7-4.3-12.6-2.2c-3.6,1.9-7.3,3.5-10.6,6
			c-3.9,3-7.7,6-11.5,8.9c-3.4,2.6-6.1,5.9-8.7,9.3c-1.1,1.4-1.8,3.1-3.2,4.4c-1.1,1-0.8,1.8,0.2,3.1
			C150.8,85.5,152.2,86.4,153.9,87z M153.7,80.9c1.7-2.7,3.8-5.3,6-7.6c1.6-1.7,3.6-3.8,5.5-5.2c4.2-3.1,8.4-6.3,12.9-9
			c3.5-2.1,7.8-4.9,12.1-4c4.1,0.9,7.3,5.4,8.7,9.4c0.9,2.5,2.7,7.1,1.3,9.6c-2.7,4.9-12.4,5.8-17.1,7.1c-0.1,0-0.1,0-0.2,0
			c-5,1.3-10.1,1.2-15.3,2.2c-4,0.8-8.1,1.3-12.2,0.5c-0.3-0.1-0.6-0.1-0.9-0.2C152.8,83,152.7,82.5,153.7,80.9z"/>
		<path d="M274.4,203.5c-4.3,1.1-8.6,2.4-13,3.5c-0.9,0.2-1.4,1-1.9,1.6c-0.3,0.4-0.4,0.9-0.1,1.3c0.4,0.5,1,0.6,1.5,0.3
			c2.1-1,4.3-1.2,6.5-1.9c3.2-1,6.5-1.9,9.8-2.5c2.3-0.4,4.6-1,6.8-1.6c7.6-2.3,15.1-5.2,22.8-7.1c2.6-0.7,5.1-1.8,7.7-2.2
			c4.4-0.7,8.4-2.2,12.4-4c0.8-0.4,1.6-0.6,2.5-0.6c1.6,0,2.4-0.8,2.3-2.3c-0.1-1.2-1-1.9-2.2-1.6c-1.6,0.4-3,1.4-4.6,1.9
			c-4.4,1.5-8.7,3.1-13.2,4.4c-2.8,0.8-5.6,1.5-8.4,2.4c-3.9,1.3-8,1.9-11.8,3.6c-1.8,0.8-3.6,1.6-5.5,2
			C282.2,201.5,278.3,202.5,274.4,203.5z"/>
		<path d="M324.2,238.9c-3,0.5-6,0.1-9,0.2c-1.5,0.1-3-0.1-4.4-0.3c-3.8-0.3-7.5-0.9-11.3-1c-4.1-0.1-8.2-0.3-12.3-0.7
			c-3-0.3-6-0.6-9-0.7c-2.3-0.1-4.6,0.4-6.8-0.1c-1-0.2-1.9-0.3-2.8-0.2c-1.1,0.1-2.2,0.1-3.3,0.3c-1.1,0.2-1.2,1-0.8,2
			c0.3,0.8,0.3,1.8,1.6,1.2c1.2-0.6,2.5-0.5,3.7-0.2c1.5,0.3,3,0.3,4.5,0.3c4.5-0.2,9,0.1,13.4,0.8c2.4,0.4,4.9,0.3,7.3,0.5
			c3,0.2,6.1,0.1,9.1,0.6c3.1,0.5,6.3,1,9.4,1c2.9,0,5.8,0.1,8.7,0.7c2,0.4,2.9-0.2,3.6-2.1C326.3,239.9,325.5,238.7,324.2,238.9z"
			/>
		<path d="M323.5,214.5c-3.1,0.4-6.3,0.7-9.4,1.2c-2.2,0.3-4.4,0.6-6.6,0.7c-5.7,0.1-11.3,1.3-16.9,1.7c-3.2,0.2-6.4,0.2-9.7,0.6
			c-2.9,0.4-6,0.3-9,0.3c-2.5,0-5,0.9-7.5,0.3c-0.4,0-0.7,0-1,0c-1,0.1-2.3,1.3-2.2,2.2c0.2,1.2,1.4,1,2.3,1.2
			c0.4,0.1,0.8-0.1,1.2-0.1c2.9-0.4,5.8-0.7,8.7-0.8c5.5-0.1,11,0,16.6-0.4c2.3-0.2,4.6-0.4,6.8-0.7c3.8-0.7,7.6-1.1,11.4-1
			c2.7,0.1,5.2-0.4,7.7-1c2.3-0.5,4.5-0.5,6.7,0.2c0.6,0.2,3.3-0.4,3.7-0.9c0.2-0.2,0.2-0.6,0.2-0.9
			C326.5,215.6,325,214.3,323.5,214.5z"/>
		<path d="M239.5,234.6c-0.9,0-2,1.6-2,2.9c0,1.2,1,2.1,2,2.1c0.9-0.1,2.1-1.7,2.2-3.1C241.8,235.8,240.2,234.5,239.5,234.6z"/>
		<path d="M238,222.2c-0.1-0.5-1.9-1.9-2.5-1.9c-1.1-0.1-2.1,1.1-2.1,2.4c0,1.3,0.5,1.9,1.8,1.9C236.3,224.6,238.1,223.1,238,222.2z
			"/>
		<path d="M144.9,202.2c1,0.1,2.3-1,2.3-1.9c0-0.8-1.5-2.2-2.4-2.3c-0.9-0.1-2,1-2,1.9C142.7,201,143.8,202.1,144.9,202.2z"/>
		<path d="M255.5,227.6c-1.2,0.1-1.9,0.8-1.8,2c0,1,1.1,2.4,1.9,2.4c0.9,0,2.1-1.4,2.1-2.3C257.7,228.5,256.6,227.6,255.5,227.6z"/>
		<path d="M138.9,220.6c0.4,0,1.9-1.7,1.8-2.1c-0.1-1.1-1.1-2.1-2.1-2.1c-1.4,0-2.4,1-2.3,2.1C136.4,219.5,137.9,220.7,138.9,220.6z
			"/>
		<path d="M156.8,212c0.1-1.3-0.3-1.7-1.8-1.8c-1.2-0.1-1.9,0.5-1.9,1.8c-0.1,1.3,0.6,1.9,2.2,2.1
			C156.2,214.2,156.8,213.4,156.8,212z"/>
		<path d="M248.9,210.4c-0.9,0-1.8,1.1-1.7,2.2c0.1,0.7,1,1.6,1.8,1.6c1.3,0,2-0.6,2-1.7C251,211.4,250,210.5,248.9,210.4z"/>
		<path d="M135.6,157.8c2.4-0.3,4.5-0.2,5.8-2.3c1.5-2.5,2.4-3.7,1.4-6.8c-0.8-2.5-2.8-4.3-5.2-5c-0.6-0.2-1.2-0.1-1.8,0.2
			c-1.4,0.7-2.7,1.4-3.8,2.8c-1.7,2.3-2,4.5-0.9,7C131.8,155.9,133.7,157.2,135.6,157.8z M136.9,147.1c1.6,0.1,3.6,2.5,3.6,4.2
			c0,1-2.4,2.9-3.6,2.9c-1.4-0.1-3.1-2.2-3-3.7C133.8,148.9,135.5,147,136.9,147.1z"/>
		<path d="M250.7,174.1c2.2-0.8,3.1-2.3,3.2-5.1c0-2.5-0.3-4.7-3.1-5.3c-0.2,0-0.3-0.1-0.4-0.2c-3.2-1.8-6.4-0.7-7.8,2.7
			c-0.4,1-0.6,2-0.6,3c0,1.3,0,2.7,1.1,3.8C245.3,175.1,247.9,175.1,250.7,174.1z M247.7,166c1.1-0.1,2.6,1.3,2.6,2.5
			c0,1.3-1,2.4-2.3,2.4c-1.4,0-2.5-0.9-2.5-2.2C245.4,167.5,246.6,166.1,247.7,166z"/>
	</g>
	<g>
		<path d="M133.9,301.4c1.2,0.4,1.6,1.4,2,2.5c-1.7,0.8-3.7,0.5-4.8-0.9c-0.6-0.8-0.6-1.9,0-2.7c1.2-1.6,2.7-2.9,4.6-3.5
			c1.4-0.5,3.2,0.4,3.7,1.7c0.4,1.1,0,1.7-1.1,1.6c-0.2,0-0.3,0-0.5-0.1C136.1,298.8,135.1,300,133.9,301.4z M133.9,299.5l-0.1,0.2
			L133.9,299.5l-0.1,0C133.8,299.5,133.9,299.5,133.9,299.5z"/>
		<path d="M109,321.5c-0.2-0.3-0.6-0.1-0.9-0.2c-1.4-0.3-1.8-1.4-0.8-2.4c0.6-0.7,0.9-1.3,0.2-2c-0.7-0.7-1.6-0.7-2.5,0
			c-1.6,1.3-1.3,2.8-0.8,4.5c0.3,0.9,0.5,1.6,1.3,2.3c0.8,0.6,1.6,0.9,2.5,1c1.3,0,2-0.3,2.2-1.1C110.6,322.4,109.6,322.1,109,321.5
			z"/>
		<path d="M143.9,314.8c-1.1-1-0.9-2-0.4-3.2c0.2-0.5,0.5-1,0.6-1.5c0.2-0.9-0.6-1.8-1.5-1.8c-0.8,0.4-1.9,0.6-2.1,1.8
			c-0.2,1.2-0.5,2.5-0.7,3.7c-0.2,1.3,0.5,2.8,1.7,3.4c1.1,0.6,1.8-0.2,2.6-0.9C144.9,315.7,144.3,315.2,143.9,314.8z"/>
		<path d="M91.4,343.1c-1-0.6-0.8-1.5-0.6-2.5c0.2-1,0.7-1.8,1.6-2.3c0.9-0.5,1.7-0.1,2.3,0.6c0.7,0.7,0.8,1.5,0.2,2.1
			c-0.9,0.9-1.3,1.6-0.2,2.7c0.5,0.4,0.8,1.2,0,1.9c-0.7,0.6-2,0.5-2.6-0.1C91.6,344.7,91,344,91.4,343.1c0.2,0,0.2,0.3,0.4,0
			C91.6,343.1,91.5,343.1,91.4,343.1z M93.1,339.5l0.1-0.1l-0.1,0L93.1,339.5z"/>
		<path d="M155.8,294.3c1.2,0,2.2,1.2,1.7,2c-0.8,1.3-1,2.8-1.7,4.1c-0.6,1.2-1.1,1.2-2.1,0.2c-0.8-0.8-1.3-1.7-0.6-2.9
			c0.4-0.7,0.8-1.6,1-2.4C154.4,294.3,155.2,294.4,155.8,294.3z"/>
		<path d="M90.9,371.3c0,0.1,0,0.2,0,0.3c-1.2,1.4-0.5,2.8-0.2,4.2c0.2,1-0.9,1.7-1.9,1.3c-0.9-0.4-1.8-2.5-1.2-3.3
			c0.6-1,0.6-2.2,1.6-3.1c0.2-0.2-0.1-1,0.7-0.8C90.7,370.1,90.8,370.7,90.9,371.3z"/>
		<path d="M83.4,360.4c-0.2-2-1.7-3.4-2.4-5.2c-0.4-1-1.1,0.2-1.6-0.2c-0.3-0.2-0.6,0-0.5,0.2c0.3,0.9-0.1,2.1,0.7,2.8
			c-0.1,0.1-0.2,0.2-0.3,0.3c-0.3,0.6-0.1,1.2,0.4,1.5c0.4,0.3,0.7,0.5,1.1,0.8c0,0.1,0.1,0.3,0.1,0.4c0.1,0.4,1.9,1.1,2.2,0.9
			C83.7,361.5,83.5,361,83.4,360.4z"/>
		<path d="M125.6,323.7c-0.2-1.4-0.2-2.9-1.3-4c-0.5-0.4-0.9-0.7-1.4-0.3c-0.5,0.3-1.3,0.4-1.1,1.5c0.1,0.8,0.1,1.8,0.4,2.8
			c0.3,0.9,1.1,1.3,2,1.3C125.1,325,125.7,324.3,125.6,323.7z"/>
		<g>
			<path d="M249.1,417.7c-0.3-1.6,0.4-3,0.9-4.5c0.2-0.5,0.5-0.8,0.9-1.1c0.8-0.6,1.7-1.5,2.7-0.7c1.1,0.9,0,1.8-0.4,2.5
				c-0.8,1.2-1.3,2.5-1.3,3.9c0,2.3,0.8,3,3,2.8c0.6,0,1.1-0.2,1.6-0.2c0.4,0,0.8,0.1,0.9,0.5c0.1,0.4-0.1,0.7-0.5,1
				c-2,1.3-4.1,1.3-6.1,0.3c-1.3-0.6-1.5-2.1-1.8-3.4C249,418.6,249.3,418.2,249.1,417.7z"/>
			<path d="M261.3,402.2c-0.1-2.3,1.5-2.5,2.5-3.2c0.8-0.6,1.7,0,2.3,0.6c0.8,0.7,0.7,1.7-0.1,2.7c-1.2,1.4-1.2,1.4,0,2.7
				c0.4,0.4,1,0.6,1.1,1.2c0.1,0.6,1.1,0.9,0.4,1.6c-0.6,0.6-1.3,1.1-2.1,0.8c-0.7-0.2-1.5-0.4-1.8-1
				C262.5,405.8,260.8,404.2,261.3,402.2z"/>
			<path d="M229.9,311.4c0,0.8,0,1.3-0.4,1.8c-0.5,0.7-1.2,1-1.7,0.2c-1.5-2.1-3.7-3.3-5.8-4.6c-1.1-0.7-2.1-1.5-2.8-2.5
				c-0.3-0.4-0.6-0.8-0.4-1.3c0.3-0.5,0.8-0.4,1.2-0.3c0.5,0.1,1.1,0.1,1.6,0.4c2.4,1.3,4.7,2.6,7.1,4
				C229.5,309.8,229.9,310.7,229.9,311.4z"/>
			<path d="M276.4,377.9c0,1.2-0.4,2.3-0.9,3.4c-0.3,0.6-0.8,1.4-1.9,0.9c-1.1-0.6-1.4-1.1-1-2.2c0.7-2,0.3-3.4-1.4-4.7
				c-0.4-0.3-1-0.5-1.4-0.9c-0.5-0.4-1-0.8-0.7-1.6c0.3-0.8,1-1,1.7-1.1c0.2,0,0.5,0.1,0.7,0.1C273.8,372.3,276.4,375.6,276.4,377.9
				z"/>
			<path d="M236.1,323.6c0.8-0.2,1.3,0.2,1.8,0.6c1.6,1.8,3,3.7,3.6,6c0.3,1.2-0.2,2.2-1.3,2.3c-1,0.1-2.4-0.7-2.3-1.6
				c0.1-2.2-1.5-3.3-2.8-4.6c-0.5-0.6-1-1-0.7-1.8C234.7,323.8,235.4,323.7,236.1,323.6z M235.4,325.2l-0.1-0.1l0,0.1L235.4,325.2z"
				/>
			<path d="M289.9,405c0.1,0.6-0.1,1.2-0.4,1.8c-0.4,0.9-1,1.5-2,1.3c-0.9-0.3-1.5-1.3-1.3-2c0.8-2.1-0.3-3.7-1.2-5.3
				c-0.4-0.7-0.8-1.4-0.1-2.1c0.6-0.6,2.1-0.5,2.8,0.3C289.2,400.6,289.8,402.7,289.9,405z"/>
			<path d="M228.5,344c-0.5,1.8-0.5,3.6-0.3,5.4c0.2,1.8-0.3,2.8-1.8,3.5c-1.9-2.2-1.3-4.9-1-7.3c0.1-1.2,0.8-2.9,2-3.9
				c0.2-0.2,0.4-0.5,0.7-0.5c0.7,0,1.3,0.2,1.7,0.7c0.5,0.6-0.1,1-0.4,1.4C229.1,343.6,228.7,343.8,228.5,344
				C228.4,344,228.5,344,228.5,344z"/>
			<path d="M280.7,432c-0.8,0.1-1.2-0.2-1.3-1.2c-0.1-0.8-0.3-1.5,0-2.3c0.3-0.9,0.4-1.8,0.5-2.8c0-1.5,1.2-2.2,2.6-1.8
				c1.1,0.3,1.7,1.2,1.1,2.1c-0.7,1-0.7,1.9-0.4,3.1C283.6,431,282.7,432,280.7,432z"/>
			<path d="M213.2,327.6c0.4,1.6-0.6,3.3-0.1,5c0.2,0.7-0.4,0.9-1,1.1c-0.7,0.2-1.3-0.2-1.5-0.8c-0.4-1-0.7-2.1-0.6-3.2
				c0.2-1.3,0.2-2.5,0.1-3.8c-0.2-1.2,0.6-1.6,1.5-1.7c0.9-0.2,1.6,0.5,1.6,1.5C213.2,326.3,213.2,326.9,213.2,327.6z"/>
			<path d="M256.5,346.3c1.5-1.3,1.5-1.3,2.6-0.1c1,1.2,2.1,2.3,2.6,3.9c0.3,0.7,0.1,1.4,0.1,2.1c0,1-0.8,1.1-1.5,1.2
				c-0.8,0.2-1.2-0.2-1.4-0.9c-0.6-1.6-1-3.3-2.5-4.4c-0.4-0.3-0.3-0.9,0.1-1.3l0,0C256.7,346.7,256.8,346.5,256.5,346.3
				L256.5,346.3z"/>
			<path d="M246,370.1c0.3-0.9,0.6-1.8,1.1-2.6c0.6-1.1,1.4-1.3,2.6-0.9c1,0.4,1.2,1,0.6,1.8c-0.9,1.4-1.8,2.7-2.2,4.4
				c-0.2,0.8-1,1.2-1.7,1.5c-0.9,0.4-1.9-0.4-1.8-1.4C244.7,371.8,244.9,370.7,246,370.1c0,0,0.1,0.1,0.1,0.1L246,370.1z"/>
			<path d="M263.6,441.5c1,0,1.8,0.6,1.4,1.4c-0.7,1.4-0.1,2.2,0.7,3.1c0.3,0.3,0.6,0.8,0.7,1.2c0.2,0.6,0,1.1-0.4,1.5
				c-0.4,0.3-0.7,0.4-1.3,0.3c-1.6-0.4-3.8-4.2-3.5-5.7C261.4,442.3,262.5,441.5,263.6,441.5z"/>
			<path d="M198.3,297.5c0.1-1.3,0.6-1.6,1.6-0.9c0.8,0.6,1.6,1.3,2.3,2c0.8,0.7,1.4,1.6,2.4,2.2c1,0.5,1.2,1.2,0.5,2.1
				c-0.6,0.9-1.7,1.1-2.4,0.3c-1.4-1.6-2.6-3.3-4.3-4.6C198.1,298.3,198.3,297.9,198.3,297.5z"/>
			<path d="M191.7,308.7c0.2,0.1,0.5,0.1,0.6,0.2c0.7,1.7,2.6,2.4,3.1,4.2c0.4,1.2-0.4,1.5-1.2,1.9c-0.8,0.4-1.5,0.4-1.9-0.6
				c-0.6-1.4-1.1-2.7-1.9-4C189.9,309.7,190.7,308.7,191.7,308.7z"/>
			<path d="M287.1,445.3c0.8,0,2.8,1.7,3,2.5c0.4,1.2-0.9,1.4-1.2,2.1c-0.3,0.7-0.9,0.2-1.4-0.1c-1.2-0.9-1.6-2.1-1.5-3.5
				C286.1,445.6,286.4,445.3,287.1,445.3z"/>
		</g>
	</g>
</g>
<g id="Layer_3">
	<g>
		<path d="M120.6,365.6l-2,5.5l-0.4,1.9c-1.5,6.3-2.3,10.4-2.5,12.5c-0.2,2.1-0.3,4-0.4,5.6c-0.1,1.7,0,3.1,0.2,4.4
			c0.2,1.2,0.5,2.4,0.9,3.6c0.8,2.3,2.3,3.7,4.5,4.2c0.9,0.2,2.2,0,3.8-0.6c1.6-0.6,2.7-0.9,3.4-0.7c0.7,0.2,1.4,0.8,2,1.8
			c-0.6,2.7-2.6,4.3-6,4.7c-1.7,0.2-3.4,0.1-5.2-0.3c-1.8-0.4-3.2-1.1-4.3-2.1c-1.1-1-1.9-2.2-2.5-3.5c-0.6-1.3-1-3-1.2-4.9
			c-0.2-1.9-0.3-3.8-0.3-5.7c0.1-1.9,0.3-4,0.6-6.3c0.6-4,1.4-8.3,2.5-12.9l2.3-9.6c0.7-3.1,1.5-5.5,2.3-7.3c0-0.9,0.2-1.8,0.4-2.6
			c0.8-3.3,2.6-5.7,5.5-7c2.9-1.4,6.2-1.7,9.8-0.8c1.3,0.3,2.5,1,3.5,2c1.1,1,1.5,2.1,1.2,3.3c-0.1,0.6-0.5,1-1,1.2
			c-0.5,0.2-1.3,0.2-2.4-0.1c-1.1-0.2-1.7-0.7-2-1.5l0,0l-1.1-0.3l0-0.2c-3.1-0.7-5.5-0.3-7.1,1.4c-1.5,1.5-2.7,4.5-3.7,8.9
			L120.6,365.6z"/>
		<path d="M150.8,414.1c-1.7-0.4-2.3-1.3-2-2.7l2.4-10.5c-0.6-0.7-1.9-1.5-3.8-2.3c-1.9-0.8-3.6-1.5-5.1-1.9
			c-0.8,0.8-1.5,2.1-2.3,3.8c-0.8,1.7-1.6,3.4-2.4,5.1c-0.8,1.7-1.6,3-2.5,3.9c-2.1-0.5-3.2-1.3-3.2-2.4c1-0.9,3.4-6,7.3-15.3
			c3.9-9.3,7-16.6,9.4-21.8c2.3-5.2,4.6-9.6,6.7-13c2.1-3.4,3.7-5,4.9-4.8c1.1,0.3,1.9,0.7,2.4,1.3c-0.4,1.9-1.1,7.2-2,15.9
			c-0.9,8.7-1.7,14.3-2.2,16.8c-0.6,2.5-1.3,6.7-2,12.6c-0.8,5.9-1.5,10.3-2.2,13.2C153.7,413.8,152.6,414.5,150.8,414.1z
			 M153.6,387c0.6-4.9,1.3-9.5,1.9-13.9c0.6-4.4,1-7.1,1.3-8c0.2-0.9,0.3-1.4,0.4-1.5c-1,0.7-3.4,5.2-7,13.6
			c-3.6,8.4-5.8,13.8-6.4,16.1c2.1,1.1,3.9,1.9,5.4,2.2c1.5,0.4,2.6,0.5,3.3,0.5C152.5,394.8,153,391.8,153.6,387z"/>
		<path d="M177.5,370.9l-2.6,10.4l-3.6,18.7l-2.7,14.7c-0.6,2.6-1.7,3.8-3.2,3.4c-0.9-0.2-1.5-0.8-1.7-1.7c-0.2-0.9-0.2-1.9,0-2.9
			l3.6-12.7c0.6-2.8,1.4-7,2.4-12.7c0.9-5.7,1.7-9.9,2.4-12.7l1.8-7c0.9-3.9,1.2-6.4,1-7.7l-4.5-0.6c-0.7-0.2-1.2-0.5-1.7-1
			c-0.4-0.5-0.6-1.1-0.4-1.8c0.1-0.6,0.9-1,2.3-1.2c1.4-0.2,3.1-0.1,5,0.1c3.3,0.4,6.1,0.8,8.3,1.3c0.7,0.2,1.2,0.5,1.6,1.1
			c0.4,0.6,0.6,1.2,0.4,1.8c-0.2,0.7-0.5,1.1-1.1,1.4c-0.6,0.3-1.2,0.3-1.9,0.2l-2.8-0.8c-0.4-0.1-0.6-0.1-0.8-0.2
			C178.9,364.1,178.3,367.4,177.5,370.9z"/>
	</g>
	<g class="st12">
		<path class="st13" d="M120.4,391.7l4.8-35.4c0.6-4,1.2-7.9,1.9-11.8l2.8-1.1c1.8,0.4,3.2,5.5,4.1,15.4c0.7,8.1,1.2,15.3,1.5,21.7
			c0.3,6.4,0.4,9.9,0.4,10.4c0.7-1.9,2-5.3,3.9-10.2c1.9-4.9,3.3-8.7,4.3-11.4c2.9-7.9,4.9-15.1,6.3-21.4l0.1-0.5
			c0.2-0.8,0.7-1.3,1.4-1.7c0.7-0.4,1.4-0.5,2.1-0.4c0.7,0.1,1.2,0.4,1.6,1c0.4,0.6,0.5,1.1,0.4,1.7c-1.1,7.3-2.4,18.2-3.9,32.9
			c-1.6,14.6-2.9,25.6-3.9,32.9c-0.2,1.5-0.8,2.7-1.7,3.6c-0.9,1-1.8,1.4-2.5,1.3c-1.5-0.2-2.1-1.5-1.7-3.9l5.2-38.5l0.7-4.6
			c-0.8,2.3-2.3,6.3-4.6,11.9c-2.3,5.7-3.9,10-4.8,13.1l-0.1,0.6c-0.1,0.2-0.3,0.8-0.5,1.7c-0.2,0.9-0.5,1.6-0.7,2.2
			c-0.2,0.6-0.5,1.2-0.9,1.9c-0.8,1.3-1.8,1.9-3.1,1.7c-2.2-0.3-2.8-3.3-2-9c0.8-5.6,0.6-13.7-0.7-24.2c-0.6-5.3-1-8.8-1.1-10.6
			c-0.8,4.9-1.4,8.5-1.8,11l-4.7,37.7c-0.2,1.3-0.8,2.4-1.9,3.2c-1.6-0.2-2.6-0.9-3-2c-0.4-1.1-0.5-2.5-0.2-4.2L120.4,391.7z"/>
		<path class="st13" d="M168.4,385.6l-2.3-0.4c-0.9-0.1-1.5,0-2,0.4l-4.1,28.2c3.1,0.3,4.9,0.4,5.1,0.5c3.5,0.5,5.1,1.6,4.9,3.2
			l0,0.3c-0.5,0.8-1.3,1.3-2.4,1.6c-1.1,0.3-2,0.4-2.8,0.4c-0.8-0.1-1.8-0.2-3-0.3l-2.9-0.4c-2.3-0.3-3.6-1-4-1.9
			c-0.2-0.5-0.2-1-0.1-1.7l7.7-53.1c0.2-1,0.2-2.6,0.1-4.7c-0.1-2.1-0.1-3.7,0.1-4.8l0-0.3c1.3-1.5,2.2-2.5,2.7-2.9l6.9,0.2
			c0.9,0.1,1.8,0.5,2.7,1.2c0.9,0.7,1.2,1.5,1.1,2.4c-0.3,1.8-1.8,2.5-4.5,2.1l-2.6-0.5c-0.4-0.1-0.8-0.1-1-0.1l-1.5,15.2
			c-0.2,1.2-0.5,3-1,5.3c-0.5,2.3-0.8,4-1,5.1c0.3,0,0.8-0.1,1.4-0.1c1.3-0.1,2.3-0.2,3-0.1c0.7,0.1,1.3,0.4,1.8,1
			c0.5,0.6,0.7,1.2,0.6,1.9c-0.1,0.7-0.4,1.3-0.9,1.8C169.7,385.6,169.1,385.7,168.4,385.6z"/>
	</g>
</g>
<g id="Layer_6">
	<g>
		<path d="M326.3,435.3c-0.5,0.7-1.3,0.9-2,1.1c-0.4,0.1-0.7,0.1-1.1,0.1c-0.3,0-0.6,0-0.3,0.5c0.2,0.4,0.4,0.8,0.6,1.2
			c0.1,0.1,0.1,0.3,0,0.4c-0.2,0.1-0.2-0.1-0.3-0.2c-0.7-1.5-1.4-2.9-2-4.4c0-0.1-0.2-0.3,0-0.3c0.1-0.1,0.2,0.1,0.2,0.2
			c0.3,0.7,0.6,1.4,0.9,2.1c0.1,0.2,0.2,0.3,0.5,0.3c1.3,0.1,2.5-0.3,3.4-1.2c0.7-0.6,0.8-1.8,0.3-2.4c-0.4-0.4-0.9-0.6-1.4-0.6
			c-1-0.1-2.1,0.1-3,0.4c-0.6,0.2-1.3,0.4-1.9,0.9c-0.1,0.1-0.1,0.2-0.3,0.1c-0.1-0.1,0-0.2,0.1-0.3c0.2-0.3,0.4-0.4,0.7-0.6
			c1.4-0.5,2.8-1,4.3-0.9c0.7,0,1.3,0.3,1.8,0.8c0.3,0.3,0.3,0.6,0.3,1l0,0c0,0-0.1,0.1-0.1,0.1c0,0,0.1,0,0.1,0l0,0
			C327.1,434.3,326.9,434.9,326.3,435.3C326.3,435.3,326.3,435.3,326.3,435.3z"/>
		<path d="M313.5,438.5c0-0.3,0.1-0.6,0.1-0.9c0-0.2,0.2-0.1,0.3,0c0.5,0.6,1.2,0.9,1.9,1.2c0.7,0.4,1.5,0.5,2.3,0.7
			c0.4,0.1,0.8,0.2,1.2,0.1c0.3,0,0.4-0.1,0.2-0.4c-0.3-0.6-0.8-1-1.2-1.5c-0.9-0.9-2.1-1.6-3.1-2.4c-0.3-0.2-0.6-0.4-1-0.6
			c-0.1,0-0.3-0.1-0.2-0.3c0.1-0.2,0.2-0.2,0.4-0.1c1.2,1.1,2.8,1.7,3.9,2.9c0.5,0.5,1.1,1,1.5,1.6c0.2,0.2,0.4,0.5,0.2,0.8
			c-0.1,0.3-0.5,0.2-0.8,0.2c-0.6,0-1.3-0.2-1.9-0.3c-1.1-0.2-2.2-0.6-3.2-1.3c-0.3-0.2-0.4,0-0.4,0.2c-0.1,0.4-0.2,0.8-0.2,1.3
			c-0.1,0.4-0.1,0.8-0.2,1.1c0,0.1,0,0.3-0.2,0.3c-0.2,0-0.2-0.2-0.2-0.4C313.2,440.1,313.3,439.3,313.5,438.5
			C313.5,438.5,313.5,438.5,313.5,438.5L313.5,438.5z"/>
		<path d="M327.9,437c0.2-0.3,0.5-0.5,0.5-0.9c0-0.3,0.2-0.2,0.3-0.1c0.2,0.3,0.3,0.2,0.5,0c0.4-0.4,1-0.2,1.2,0.2
			c0,0.1,0,0.2-0.1,0.3c-0.1,0.1-0.2,0.1-0.4,0c-0.2-0.1-0.2-0.5-0.5-0.4c-0.3,0.1-0.2,0.4-0.3,0.6c-0.2,0.3-0.4,0.1-0.5,0
			c-0.2-0.4-0.3-0.1-0.5,0c-0.1,0.2-0.2,0.4-0.4,0.5c-0.3,0.2-0.6,0.3-1,0c-0.2-0.2-0.3-0.1-0.5,0c-0.1,0.1-0.2,0.3-0.3,0.3
			c-0.3,0.2-0.5,0.3-0.8,0.1c-0.3-0.2-0.3-0.6-0.2-0.8c0.1-0.3,0.3-0.5,0.6-0.7c0.3-0.2,0.6-0.2,0.9,0c0.3,0.2,0.6,0.3,0.8,0.7
			C327.5,437.6,327.7,437.1,327.9,437C327.9,437,327.9,437.1,327.9,437L327.9,437z M326,437.5c0.1,0,0.6-0.5,0.5-0.7
			c-0.1-0.2-0.2-0.4-0.4-0.3c-0.3,0.1-0.7,0.6-0.6,0.8C325.5,437.6,325.7,437.6,326,437.5z"/>
		<path d="M331.2,434.9c0.1,0.1,0.1,0.2,0.1,0.3c0.1,0.3,0.2,0.4,0.5,0.1c0.1-0.1,0.1-0.2,0.3-0.1c0.1,0.1,0,0.2,0,0.2
			c0,0.1-0.1,0.2,0,0.3c0.1,0.1,0.2,0.1,0.3,0c0.4-0.2,0.8-0.4,0.9-0.9c0,0,0,0,0,0c0.1-0.1,0.2-0.1,0.3-0.1
			c0.1,0.3,0.4,0.5,0.3,0.8c0,0.2-0.2,0.1-0.3,0.1c-0.2-0.3-0.5-0.1-0.6,0c-0.3,0.3-0.8,0.4-1,0.7c-0.1,0.1-0.3,0-0.4-0.2
			c-0.3-0.3-0.4-0.7-0.6-1.1c-0.2-0.4-0.3-0.8-0.6-1.2c-0.1-0.1-0.2-0.3,0-0.4c0.2-0.1,0.2,0.1,0.3,0.2
			C330.8,434.1,331.1,434.4,331.2,434.9C331.2,434.9,331.2,434.9,331.2,434.9L331.2,434.9z"/>
		<path d="M340.5,433.8c-0.4,0.2-0.8,0.4-1.1,0.6c-0.1,0-0.1,0.1-0.2,0.1c-0.6-0.1-1.2-0.2-1.8,0c0,0-0.1,0-0.2,0
			c-0.2-0.1-0.3-0.3-0.2-0.5c0.1-0.3,0.3-0.7,0.7-0.8c0.2,0,0.4,0.1,0.5,0.3c0.3,0.6,0.9,0.8,1.5,0.5c0.3-0.1,0.6-0.2,0.9-0.2
			C340.5,433.7,340.5,433.7,340.5,433.8z M337.9,433.7c0-0.1-0.1-0.3-0.2-0.2c-0.2,0.1-0.3,0.2-0.3,0.4c0,0.1,0.1,0.2,0.3,0.2
			C337.8,434,338,433.9,337.9,433.7z"/>
		<path d="M336.5,434.5c0,0.1,0.1,0.3,0,0.3c-0.1,0.1-0.1-0.1-0.2-0.2c-0.1-0.1-0.2-0.2-0.3-0.3c-0.4-0.3-0.8-0.2-0.8,0.3
			c0,0.1,0,0.3-0.2,0.4c-0.1,0-0.2-0.1-0.2-0.2c-0.1-0.2-0.3-0.5-0.2-0.5c0.2-0.1,0.4-0.2,0.6-0.3c0.4-0.3,1.1-0.2,1.4,0.3
			C336.5,434.4,336.5,434.5,336.5,434.5z"/>
		<path d="M321.3,438.8c0,0.1,0,0.3-0.1,0.3c-0.2,0.1-0.3-0.1-0.3-0.2c0-0.1,0-0.2,0.2-0.3C321.2,438.6,321.3,438.7,321.3,438.8z"/>
		<path d="M332.9,433.7c-0.2,0-0.2-0.1-0.2-0.2c0-0.1-0.1-0.3,0.1-0.3c0.1,0,0.2,0.1,0.2,0.2C333,433.6,333,433.7,332.9,433.7z"/>
		<path d="M327.1,433.5C327.1,433.5,327.1,433.5,327.1,433.5C327.1,433.6,327.1,433.6,327.1,433.5
			C327.1,433.5,327.1,433.5,327.1,433.5L327.1,433.5z"/>
	</g>
</g>
</svg>
